#N canvas 639 74 482 459 10;
#X declare -stdlib zexy;
#X declare -stdpath AutoPreset;
#X declare -stdpath nusmuk-utils;
#X declare -stdpath moonlib;
#X declare -lib pof -lib iemlib1 -stdpath iemlib;
#X declare -lib creb;
#X declare -stdpath Fraise -path kep;
#X obj 128 134 dac~;
#N canvas 895 359 541 429 POFWIN 1;
#X obj 161 277 pofwin;
#X msg 308 173 framerate \$1;
#X msg 308 133 30;
#X msg 342 133 50;
#X msg 374 133 60;
#X floatatom 308 155 5 0 0 0 - - -, f 5;
#X msg 310 204 cursor 0;
#X msg 212 92 window 1024 1024 1 \, framerate 60 \, cursor 0;
#X msg 161 121 background 0 0 0 1;
#X msg 104 191 build;
#X msg 203 162 666;
#X msg 206 58 window 1920 1080 1 \, framerate 60 \, cursor 0;
#X floatatom 202 189 5 0 0 0 - - -, f 5;
#X obj 81 30 loadbang;
#X obj 81 78 b;
#X obj 215 385 s VISUAL_COMPUTE;
#X msg 215 342 1;
#X msg 81 337 1;
#X obj 81 380 s VISUAL_SHOW;
#X obj 81 151 del 1000;
#X obj 81 315 del 1000;
#X obj 215 320 del 1000;
#X msg 322 312 0;
#X msg 135 338 0;
#X connect 1 0 0 0;
#X connect 2 0 5 0;
#X connect 3 0 5 0;
#X connect 4 0 5 0;
#X connect 5 0 1 0;
#X connect 6 0 0 0;
#X connect 7 0 0 0;
#X connect 8 0 0 0;
#X connect 9 0 0 0;
#X connect 9 0 10 0;
#X connect 10 0 12 0;
#X connect 11 0 0 0;
#X connect 13 0 14 0;
#X connect 14 0 8 0;
#X connect 14 0 11 0;
#X connect 14 0 19 0;
#X connect 16 0 15 0;
#X connect 17 0 18 0;
#X connect 19 0 9 0;
#X connect 19 0 20 0;
#X connect 20 0 17 0;
#X connect 20 0 21 0;
#X connect 21 0 16 0;
#X connect 22 0 15 0;
#X connect 23 0 18 0;
#X restore 233 51 pd POFWIN;
#N canvas 8 74 675 271 DECLARES/AP/PATHS 0;
#X obj 37 43 declare -stdlib zexy;
#X obj 37 62 declare -stdpath AutoPreset;
#X obj 37 24 declare -stdpath nusmuk-utils;
#X obj 37 81 declare -stdpath moonlib;
#X obj 41 164 apmaster ALL;
#X obj 41 235 apmasterfile ALL preset.txt;
#X obj 225 216 bng 15 250 50 0 empty empty empty 17 7 0 10 -258113
-1 -1;
#X obj 41 214 bng 15 250 50 0 empty empty empty 17 7 0 10 -4034 -1
-1;
#X obj 41 190 loadbang;
#X obj 309 110 bng 15 250 50 0 empty empty empty 17 7 0 10 -262144
-1 -1;
#X obj 309 87 loadbang;
#X msg 309 132 \; pd dsp 1;
#X obj 272 22 declare -lib pof -lib iemlib1 -stdpath iemlib;
#X obj 37 101 declare -lib creb;
#X connect 6 0 5 1;
#X connect 7 0 5 0;
#X connect 8 0 7 0;
#X connect 9 0 11 0;
#X connect 10 0 9 0;
#X restore 233 22 pd DECLARES/AP/PATHS;
#N canvas 9 74 715 467 AUDIO_SRC 0;
#X obj 221 326 pack f s;
#X obj 286 306 r DATASDIR;
#X obj 221 371 readsf~ 2 1e+06;
#X msg 221 348 stop \, open \$2/Groupe\$1.wav \, start;
#X msg 200 286 1;
#X msg 230 286 2;
#X msg 266 285 3;
#X msg 299 284 4;
#X obj 162 232 osc~;
#X obj 233 32 tgl 15 0 empty empty empty 17 7 0 10 -262144 -1 -1 0
1;
#X obj 233 102 + 10;
#X obj 233 55 metro 5;
#X obj 233 80 random 20000;
#X obj 233 122 f;
#X msg 277 29 5;
#X msg 317 26 500;
#X msg 180 338 stop;
#X obj 164 71 mtof;
#X floatatom 162 53 5 0 0 0 - - -, f 5;
#X obj 162 116 line~;
#X msg 162 94 \$1 50;
#X floatatom 292 54 5 0 0 0 - - -, f 5;
#X obj 162 255 *~;
#X obj 288 127 metro 500;
#X obj 361 167 del 100;
#X msg 376 190 0;
#X msg 263 151 1;
#X obj 303 104 tgl 15 0 empty empty empty 17 7 0 10 -262144 -1 -1 0
1;
#X floatatom 117 122 5 0 0 0 - - -, f 5;
#X obj 333 187 bng 15 250 50 0 empty empty empty 17 7 0 10 -262144
-1 -1;
#X obj 47 45 adc~;
#X obj 163 434 outlet~;
#X obj 380 107 motex/getenv HOME;
#X obj 380 50 bng 15 250 50 0 empty empty empty 17 7 0 10 -262144 -1
-1;
#X msg 380 128 symbol \$1/Datas/FTBOPEV/;
#X obj 380 150 s DATASDIR;
#X obj 380 27 loadbang;
#X obj 493 214 r CLOCK;
#X obj 551 214 r MANUAL;
#X obj 493 236 spigot;
#X obj 493 260 bng 15 250 50 0 empty empty empty 17 7 0 10 -262144
-1 -1;
#X obj 163 203 +~ 10;
#X obj 227 158 *~;
#X obj 163 181 *~ 10000;
#X obj 227 181 *~;
#X obj 227 201 *~;
#X obj 227 224 *~;
#X obj 411 437 outlet~;
#X obj 285 233 ead~ 1 10;
#X connect 0 0 3 0;
#X connect 1 0 0 1;
#X connect 2 0 31 0;
#X connect 2 1 31 0;
#X connect 3 0 2 0;
#X connect 4 0 0 0;
#X connect 5 0 0 0;
#X connect 6 0 0 0;
#X connect 7 0 0 0;
#X connect 8 0 22 0;
#X connect 9 0 11 0;
#X connect 10 0 13 0;
#X connect 11 0 12 0;
#X connect 12 0 10 0;
#X connect 13 0 19 0;
#X connect 14 0 11 1;
#X connect 15 0 11 1;
#X connect 16 0 2 0;
#X connect 17 0 20 0;
#X connect 17 0 28 0;
#X connect 18 0 17 0;
#X connect 20 0 19 0;
#X connect 21 0 11 1;
#X connect 22 0 47 0;
#X connect 22 0 31 0;
#X connect 23 0 24 0;
#X connect 23 0 26 0;
#X connect 23 0 48 0;
#X connect 24 0 25 0;
#X connect 27 0 23 0;
#X connect 29 0 48 0;
#X connect 30 0 31 0;
#X connect 32 0 34 0;
#X connect 33 0 32 0;
#X connect 34 0 35 0;
#X connect 36 0 33 0;
#X connect 37 0 39 0;
#X connect 38 0 39 1;
#X connect 39 0 40 0;
#X connect 40 0 29 0;
#X connect 41 0 8 0;
#X connect 42 0 44 0;
#X connect 42 0 44 1;
#X connect 43 0 41 0;
#X connect 44 0 45 0;
#X connect 44 0 45 1;
#X connect 45 0 46 0;
#X connect 45 0 46 1;
#X connect 46 0 43 0;
#X connect 48 0 22 1;
#X connect 48 0 42 0;
#X connect 48 0 42 1;
#X restore 47 38 pd AUDIO_SRC;
#N canvas 272 90 1118 773 Visual 0;
#X obj 539 87 b;
#X obj 539 108 t b b;
#X obj 539 130 timer;
#X floatatom 539 198 5 0 0 0 - - -, f 5;
#X obj 539 152 mavg 20;
#X msg 539 219 1000 \$1;
#X obj 539 241 /;
#X floatatom 539 263 5 0 0 0 - - -, f 5;
#X obj 259 618 pofcolor 1 1 1 1;
#X obj 259 592 poftranslate 0 0;
#X msg 407 615 clear 0;
#X obj 407 594 loadbang;
#X floatatom 368 562 5 0 0 0 - - -, f 5;
#X obj 259 550 pofshader;
#X obj 420 572 tgl 15 0 empty empty empty 17 7 0 10 -262144 -1 -1 0
1;
#X msg 273 437 play \$1;
#X obj 274 412 tgl 15 0 empty empty empty 17 7 0 10 -262144 -1 -1 0
1;
#N canvas 136 430 730 304 drawSpectrum2 0;
#X obj 89 38 inlet pofhead;
#X obj 311 19 inlet~;
#X msg 185 107 clear 0 0 0 1;
#X obj 89 60 poftranslate 0 10000;
#X obj 369 150 s SPECINDEX;
#X obj 493 19 inlet on;
#N canvas 551 80 578 460 hiSpec 0;
#X obj 21 16 inlet~;
#X obj 228 134 block~ 64 1 0.25;
#X msg 226 67 set 64 1 0.25;
#X msg 206 46 set 64 4 0.25;
#X obj 20 88 windowing/blackman~;
#X obj 20 114 rfft~;
#X obj 19 143 *~;
#X obj 50 143 *~;
#X obj 19 169 sqrt~;
#X obj 324 188 bang~;
#X obj 324 212 t b b;
#X obj 324 234 timer;
#X floatatom 324 278 5 0 0 0 - - -, f 5;
#X obj 282 21 loadbang;
#X obj 216 422 outlet;
#X obj 324 256 maxlib/speedlim 100;
#X msg 268 109 set 2048 64 0.25;
#X obj 216 301 i;
#X obj 216 345 mod 1024;
#X msg 216 390 setcolors 0 \$2 1024 \$1 \$1 \$1;
#X obj 296 307 tgl 15 0 empty empty empty 17 7 0 10 -262144 -1 -1 0
1;
#X msg 404 110 set 2048 \$1 0.25;
#X floatatom 446 49 5 1 128 0 - - -, f 5;
#X obj 19 196 min~ 1;
#X obj 36 61 *~ 4;
#X obj 36 39 hip~ 20000;
#X msg 254 88 set 2048 32 0.25;
#X obj 439 423 outlet;
#X obj 493 19 inlet on;
#X obj 227 160 table \$0-hiSpecII 1024;
#X obj 216 368 list prepend \$0-hiSpecII;
#X obj 19 218 tabsend~ \$0-hiSpecII;
#X msg 420 149 set 2048 8 1;
#X msg 419 202 set 2048 64 0.125;
#X msg 419 178 set 2048 16 0.5;
#X obj 216 323 - 1;
#X obj 216 275 spigot 0;
#X connect 0 0 4 0;
#X connect 0 0 25 0;
#X connect 2 0 1 0;
#X connect 3 0 1 0;
#X connect 4 0 5 0;
#X connect 5 0 6 0;
#X connect 5 0 6 1;
#X connect 5 1 7 0;
#X connect 5 1 7 1;
#X connect 6 0 8 0;
#X connect 7 0 8 0;
#X connect 8 0 23 0;
#X connect 9 0 10 0;
#X connect 9 0 36 0;
#X connect 10 0 11 0;
#X connect 10 1 11 1;
#X connect 11 0 15 0;
#X connect 13 0 34 0;
#X connect 15 0 12 0;
#X connect 16 0 1 0;
#X connect 17 0 35 0;
#X connect 18 0 17 1;
#X connect 18 0 27 0;
#X connect 18 0 30 0;
#X connect 19 0 14 0;
#X connect 20 0 36 1;
#X connect 21 0 1 0;
#X connect 22 0 21 0;
#X connect 23 0 31 0;
#X connect 24 0 4 0;
#X connect 25 0 24 0;
#X connect 26 0 1 0;
#X connect 28 0 36 1;
#X connect 30 0 19 0;
#X connect 32 0 1 0;
#X connect 33 0 1 0;
#X connect 34 0 1 0;
#X connect 35 0 18 0;
#X connect 36 0 17 0;
#X restore 309 125 pd hiSpec;
#X obj 89 82 t a a;
#X obj 89 155 pofimage HISPECIMG 1024 1024 HISPECTEX;
#X obj 310 73 lp10_butt~ 9500;
#X obj 310 95 *~ 0.03;
#X connect 0 0 3 0;
#X connect 1 0 9 0;
#X connect 2 0 8 0;
#X connect 3 0 7 0;
#X connect 5 0 6 1;
#X connect 6 0 8 0;
#X connect 6 1 4 0;
#X connect 7 0 8 0;
#X connect 9 0 10 0;
#X connect 10 0 6 0;
#X restore 323 380 pd drawSpectrum2;
#X obj 55 334 pofcolor 1 1 1 1;
#X obj 55 308 poftranslate 0 0;
#X obj 55 356 pofplane 1024 1024;
#X obj 56 218 t a a;
#X obj 128 287 * -1;
#X obj 91 488 pofcolor 1 1 1 1;
#X obj 91 462 poftranslate 0 0;
#X obj 91 510 pofplane 1024 1024;
#X obj 185 386 * -1;
#X obj 185 408 + 1024;
#X obj 156 237 r SPECINDEX;
#X obj 157 259 spigot 1;
#X obj 432 336 tgl 15 0 empty empty empty 17 7 0 10 -262144 -1 -1 1
1;
#X floatatom 195 320 5 0 0 0 - - -, f 5;
#X floatatom 108 253 5 0 0 0 - - -, f 5;
#X obj 56 150 pofvisible;
#X obj 56 196 poftexture HISPECTEX;
#X obj 170 99 tgl 15 0 empty empty empty 17 7 0 10 -262144 -1 -1 0
1;
#X obj 187 123 == 0;
#X floatatom 392 675 5 0 0 0 - - -, f 5;
#X msg 739 517 load texturedcercle;
#X obj 438 428 r SPECINDEX;
#X obj 677 609 hsl 128 15 0 1 0 0 empty empty empty -2 -8 0 10 -262144
-1 -1 0 1;
#X msg 680 644 f freqMax \$1;
#X msg 438 498 f specindex \$1;
#X obj 438 476 / 1024;
#X obj 827 616 hsl 128 15 0 1 0 0 empty empty empty -2 -8 0 10 -262144
-1 -1 0 1;
#X msg 830 651 f gain \$1;
#X obj 527 670 hsl 128 15 0 2 0 0 empty empty empty -2 -8 0 10 -262144
-1 -1 0 1;
#X msg 530 705 f compress \$1;
#X msg 716 704 f invert \$1;
#X obj 719 678 hsl 128 15 0 1 0 0 empty empty empty -2 -8 0 10 -262144
-1 -1 0 1;
#X obj 438 450 + 8;
#X msg 854 484 f smooothExt \$1;
#X obj 842 453 hsl 128 15 0 1 0 0 empty empty empty -2 -8 0 10 -262144
-1 -1 0 1;
#X obj 707 468 loadbang;
#X obj 707 490 t b b;
#X obj 690 426 bng 15 250 50 0 empty empty empty 17 7 0 10 -262144
-1 -1;
#X obj 526 562 hsl 128 15 0 2 0 0 empty empty empty -2 -8 0 10 -262144
-1 -1 0 1;
#X msg 529 597 f fcompress \$1;
#X obj 907 651 hsl 128 15 0 1 0 0 empty empty empty -2 -8 0 10 -262144
-1 -1 0 1;
#X msg 910 686 f freqMin \$1;
#X floatatom 881 707 5 0 0 0 - - -, f 5;
#X floatatom 499 618 5 0 0 0 - - -, f 5;
#X obj 480 361 bng 15 250 50 0 empty empty empty 17 7 0 10 -262144
-1 -1;
#X obj 375 749 hsl 128 15 0 2 0 0 empty empty empty -2 -8 0 10 -262144
-1 -1 0 1;
#X msg 378 784 f spiGain \$1;
#X floatatom 411 709 5 0 0 0 - - -, f 5;
#X obj 572 735 hsl 128 15 0 2 0 0 empty empty empty -2 -8 0 10 -262144
-1 -1 0 1;
#X msg 575 770 f spiCompress \$1;
#X floatatom 726 739 5 0 0 0 - - -, f 5;
#N canvas 515 268 703 425 history 0;
#X obj 241 34 inlet~;
#X obj 444 162 table \$0-lowHistory 1024;
#X obj 105 15 r SPECINDEX;
#X obj 105 241 tabwrite \$0-lowHistory;
#X obj 224 221 tabwrite \$0-hiHistory;
#X obj 443 183 table \$0-hiHistory 1024;
#N canvas 35 516 450 300 peak-divide 0;
#X obj 144 26 inlet;
#X obj 187 104 max;
#X floatatom 58 126 5 0 0 0 - - -, f 5;
#X obj 144 265 outlet;
#X obj 144 240 /;
#X obj 187 150 +;
#X floatatom 296 243 5 0 0 0 - - -, f 5;
#X floatatom 96 242 5 0 0 0 - - -, f 5;
#X floatatom 303 173 5 0 0 0 - - -, f 5;
#X obj 187 177 pow 0.5;
#X floatatom 338 41 5 0 0 0 - - -, f 5;
#X obj 218 104 * 0.997;
#X obj 187 128 * 0.0025;
#X obj 221 149 * 0.9975;
#X obj 187 199 * 4;
#X floatatom 258 202 5 0 0 0 - - -, f 5;
#X obj 294 122 +;
#X obj 328 121 * 0.9975;
#X obj 294 99 * 0.0025;
#X obj 144 77 -;
#X obj 144 48 t f f f;
#X obj 144 99 t f f;
#X connect 0 0 20 0;
#X connect 1 0 11 0;
#X connect 1 0 12 0;
#X connect 4 0 3 0;
#X connect 5 0 9 0;
#X connect 5 0 13 0;
#X connect 5 0 15 0;
#X connect 9 0 14 0;
#X connect 11 0 1 1;
#X connect 12 0 5 0;
#X connect 13 0 5 1;
#X connect 14 0 4 1;
#X connect 16 0 17 0;
#X connect 16 0 8 0;
#X connect 16 0 19 1;
#X connect 17 0 16 1;
#X connect 18 0 16 0;
#X connect 19 0 21 0;
#X connect 20 0 19 0;
#X connect 20 2 18 0;
#X connect 21 0 4 0;
#X connect 21 1 1 0;
#X restore 123 170 pd peak-divide;
#X obj 105 193 f;
#X obj 224 198 f;
#X obj 422 236 t b b;
#X obj 422 258 timer;
#X floatatom 422 280 5 0 0 0 - - -, f 5;
#X obj 425 83 /;
#X floatatom 425 105 5 0 0 0 - - -, f 5;
#X msg 425 61 256 44.1;
#X obj 123 90 lp10_butt~ 100;
#X obj 242 91 hp10_butt~ 500;
#X obj 37 53 inlet;
#X obj 37 389 pofimage HISTIMG 1024 2 HISTTEX;
#X obj 84 270 pack f f f;
#X obj 105 38 t b b f;
#X msg 240 342 setcolor \$3 0 \$1 \$1 \$1 1 \, setcolor \$3 1 \$2 \$2
\$2 1;
#X msg 192 352 0;
#X obj 37 352 poftranslate 0 10000;
#X msg 254 365 setcolor \$3 0 0 0 0 1 \, setcolor \$3 1 0 0 0 1;
#N canvas 58 525 450 300 peak-divide-old 0;
#X obj 144 26 inlet;
#X obj 176 71 max;
#X floatatom 58 126 5 0 0 0 - - -, f 5;
#X obj 207 71 * 0.99;
#X obj 144 235 outlet;
#X obj 144 48 t f f;
#X obj 144 212 /;
#X obj 176 117 +;
#X floatatom 210 196 5 0 0 0 - - -, f 5;
#X obj 176 95 * 0.005;
#X obj 210 116 * 0.995;
#X floatatom 96 242 5 0 0 0 - - -, f 5;
#X obj 176 144 pow 0.3;
#X floatatom 273 228 5 0 0 0 - - -, f 5;
#X connect 0 0 5 0;
#X connect 1 0 3 0;
#X connect 1 0 9 0;
#X connect 3 0 1 1;
#X connect 5 0 6 0;
#X connect 5 1 1 0;
#X connect 6 0 4 0;
#X connect 7 0 10 0;
#X connect 7 0 12 0;
#X connect 9 0 7 0;
#X connect 10 0 7 1;
#X connect 12 0 6 1;
#X restore 402 131 pd peak-divide-old;
#N canvas 35 516 450 300 peak-divide 0;
#X obj 144 26 inlet;
#X obj 176 71 max;
#X floatatom 58 126 5 0 0 0 - - -, f 5;
#X obj 144 235 outlet;
#X obj 144 48 t f f;
#X obj 144 212 /;
#X obj 176 117 +;
#X floatatom 221 196 5 0 0 0 - - -, f 5;
#X floatatom 96 242 5 0 0 0 - - -, f 5;
#X floatatom 262 143 5 0 0 0 - - -, f 5;
#X obj 176 144 pow 0.5;
#X floatatom 284 108 5 0 0 0 - - -, f 5;
#X obj 207 71 * 0.997;
#X obj 176 95 * 0.0025;
#X obj 210 116 * 0.9975;
#X obj 176 166 * 4;
#X floatatom 209 224 5 0 0 0 - - -, f 5;
#X connect 0 0 4 0;
#X connect 1 0 12 0;
#X connect 1 0 13 0;
#X connect 4 0 5 0;
#X connect 4 1 1 0;
#X connect 5 0 3 0;
#X connect 6 0 10 0;
#X connect 6 0 14 0;
#X connect 10 0 15 0;
#X connect 12 0 1 1;
#X connect 13 0 6 0;
#X connect 14 0 6 1;
#X connect 15 0 5 1;
#X restore 242 166 pd peak-divide;
#X obj 123 113 env~ 4096 256;
#X obj 242 113 env~ 4096 256;
#X obj 123 140 dbtorms;
#X obj 242 141 dbtorms;
#X obj 84 292 spigot;
#X obj 548 27 inlet on;
#X msg 84 315 setcolor \$3 0 \$1 \$1 \$1 1 \, setcolor \$3 1 \$2 \$2
\$2 1;
#X connect 0 0 15 0;
#X connect 0 0 16 0;
#X connect 2 0 20 0;
#X connect 6 0 7 1;
#X connect 7 0 3 0;
#X connect 7 0 19 0;
#X connect 8 0 4 0;
#X connect 8 0 19 1;
#X connect 9 0 10 0;
#X connect 9 1 10 1;
#X connect 10 0 11 0;
#X connect 12 0 13 0;
#X connect 14 0 12 0;
#X connect 15 0 27 0;
#X connect 16 0 28 0;
#X connect 17 0 23 0;
#X connect 19 0 31 0;
#X connect 20 0 7 0;
#X connect 20 1 8 0;
#X connect 20 2 3 1;
#X connect 20 2 4 1;
#X connect 20 2 19 2;
#X connect 22 0 23 2;
#X connect 23 0 18 0;
#X connect 26 0 8 1;
#X connect 27 0 9 0;
#X connect 27 0 29 0;
#X connect 28 0 30 0;
#X connect 29 0 6 0;
#X connect 30 0 26 0;
#X connect 31 0 33 0;
#X connect 32 0 31 1;
#X connect 33 0 18 0;
#X restore 241 379 pd history;
#X obj 229 126 tgl 15 0 empty empty empty 17 7 0 10 -262144 -1 -1 0
1;
#X obj 452 804 hsl 128 15 0 1 0 0 empty empty empty -2 -8 0 10 -262144
-1 -1 0 1;
#X obj 603 794 hsl 128 15 0 1 0 0 empty empty empty -2 -8 0 10 -262144
-1 -1 0 1;
#X msg 797 757 tex fft_history HISPECTEX 0;
#X msg 658 546 f gain 0 \, f rMax 1 \, f freqMax 0.8 \, f compress
1.7 \, f smooothExt 0.05 \, f smooothInt 0.05 \, f invert 1 \, f freqMin
0.003 \, f fcompress 0.4 \, tex histTex HISTTEX 1 \, tex fft_history
HISPECTEX 0;
#X obj 539 173 maxlib/speedlim 300;
#X obj 462 52 inlet~;
#X obj 432 240 t b b;
#X obj 432 264 del 500;
#X msg 432 286 0;
#X msg 463 286 1;
#X obj 432 313 change;
#X obj 352 471 r toShader;
#X obj 35 109 tgl 15 0 empty empty empty 17 7 0 10 -262144 -1 -1 0
1;
#X obj 153 77 pofbang 0;
#X obj 153 50 r VISUAL_COMPUTE;
#X obj 187 152 pofvisible;
#X obj 280 48 r VISUAL_SHOW;
#X floatatom 523 454 5 0 0 0 - - -, f 5;
#X obj 56 108 t a a a;
#X obj 539 290 outlet FPS;
#X msg 204 738 f lowGainB \$1;
#X floatatom 241 699 5 0 0 0 - - -, f 5;
#X obj 726 203 s SPEC-pattern-snd;
#X obj 726 157 list prepend _all_;
#X obj 726 182 list trim;
#X obj 726 109 line3;
#X msg 726 87 \$1 100;
#X obj 726 136 presetfadelin 0 1 2 3 4 5 6 7 8 9 10;
#X obj 726 63 r SCREENPATTERN;
#X obj 24 18 pofhead;
#X obj 86 18 tgl 15 0 empty empty empty 17 7 0 10 -262144 -1 -1 0 1
;
#X obj 24 40 pofvisible 1;
#X obj 259 641 pofplane 800 800;
#X obj 24 67 t a a;
#X obj 24 543 s spotshead;
#X connect 0 0 1 0;
#X connect 1 0 2 0;
#X connect 1 1 2 1;
#X connect 2 0 4 0;
#X connect 3 0 5 0;
#X connect 4 0 75 0;
#X connect 5 0 6 0;
#X connect 6 0 7 0;
#X connect 6 0 90 0;
#X connect 8 0 103 0;
#X connect 9 0 8 0;
#X connect 11 0 10 0;
#X connect 12 0 103 1;
#X connect 13 0 9 0;
#X connect 14 0 8 4;
#X connect 15 0 13 0;
#X connect 16 0 15 0;
#X connect 18 0 20 0;
#X connect 19 0 18 0;
#X connect 21 0 19 0;
#X connect 21 1 24 0;
#X connect 22 0 19 2;
#X connect 23 0 25 0;
#X connect 24 0 23 0;
#X connect 26 0 27 0;
#X connect 27 0 24 2;
#X connect 28 0 29 0;
#X connect 29 0 22 0;
#X connect 29 0 26 0;
#X connect 30 0 17 2;
#X connect 30 0 69 2;
#X connect 31 0 20 1;
#X connect 31 0 25 1;
#X connect 32 0 19 1;
#X connect 32 0 24 1;
#X connect 33 0 34 0;
#X connect 34 0 21 0;
#X connect 35 0 33 0;
#X connect 35 0 36 0;
#X connect 36 0 86 0;
#X connect 37 0 103 2;
#X connect 37 0 103 1;
#X connect 38 0 13 0;
#X connect 39 0 50 0;
#X connect 40 0 41 0;
#X connect 41 0 13 0;
#X connect 42 0 13 0;
#X connect 43 0 42 0;
#X connect 44 0 45 0;
#X connect 45 0 13 0;
#X connect 46 0 47 0;
#X connect 47 0 13 0;
#X connect 48 0 13 0;
#X connect 49 0 48 0;
#X connect 50 0 43 0;
#X connect 51 0 13 0;
#X connect 52 0 51 0;
#X connect 53 0 54 0;
#X connect 54 0 74 0;
#X connect 54 1 38 0;
#X connect 55 0 54 0;
#X connect 56 0 57 0;
#X connect 56 0 61 0;
#X connect 57 0 13 0;
#X connect 58 0 59 0;
#X connect 58 0 60 0;
#X connect 59 0 13 0;
#X connect 63 0 64 0;
#X connect 64 0 13 0;
#X connect 65 0 64 0;
#X connect 66 0 67 0;
#X connect 67 0 13 0;
#X connect 68 0 67 0;
#X connect 70 0 86 0;
#X connect 73 0 13 0;
#X connect 74 0 13 0;
#X connect 75 0 3 0;
#X connect 76 0 69 1;
#X connect 76 0 17 1;
#X connect 77 0 78 0;
#X connect 77 1 80 0;
#X connect 78 0 79 0;
#X connect 79 0 81 0;
#X connect 80 0 81 0;
#X connect 81 0 30 0;
#X connect 82 0 13 0;
#X connect 83 0 33 0;
#X connect 84 1 0 0;
#X connect 84 1 77 0;
#X connect 85 0 84 0;
#X connect 86 0 13 0;
#X connect 87 0 86 0;
#X connect 88 0 50 1;
#X connect 89 0 33 0;
#X connect 89 0 86 0;
#X connect 89 1 17 0;
#X connect 89 1 69 0;
#X connect 89 1 84 0;
#X connect 91 0 13 0;
#X connect 92 0 91 0;
#X connect 94 0 95 0;
#X connect 95 0 93 0;
#X connect 96 0 98 0;
#X connect 97 0 96 0;
#X connect 98 0 94 0;
#X connect 99 0 97 0;
#X connect 100 0 102 0;
#X connect 101 0 102 0;
#X connect 102 0 104 0;
#X connect 104 0 105 0;
#X connect 104 1 89 0;
#X restore 47 102 pd Visual;
#X obj 40 254 specCtl SPEC;
#X obj 40 419 s toShader;
#X floatatom 47 132 5 0 0 1 FPS - -, f 5;
#X obj 128 102 *~ 0.2;
#N canvas 7 74 693 388 CLOCK 0;
#X obj 200 171 r TEMPO;
#X obj 170 253 ndmetro 256 1;
#X msg 200 208 tempo \$1;
#X obj 170 275 pack f f;
#X obj 170 298 s CLOCK;
#X obj 572 10 loadbang;
#X msg 170 144 0;
#X msg 139 144 -1;
#X obj 68 38 tgl 15 0 empty empty empty 17 7 0 10 -262144 -1 -1 0 1
;
#X obj 249 277 bng 15 250 50 0 empty empty empty 17 7 0 10 -262144
-1 -1;
#X obj 139 117 sel 0 1;
#X obj 516 171 unpack f f;
#X obj 583 201 t f b;
#X obj 583 223 / 4;
#X obj 583 245 del;
#X msg 583 267 0;
#X msg 615 224 1;
#X obj 516 150 r CLOCK;
#X obj 68 254 + 20;
#X obj 68 319 s TEMPO;
#X obj 68 169 f;
#X obj 68 191 spigot;
#X obj 68 143 t b f;
#X obj 68 17 r MANUAL;
#X msg 68 276 60000 \$1;
#X obj 68 298 /;
#X msg 572 29 600;
#X obj 572 50 s TEMPO;
#X obj 324 184 spigot 1;
#X obj 391 71 r MANUAL;
#X obj 391 93 == 0;
#X obj 324 12 r TEMPO;
#X obj 68 232 * 150;
#X obj 377 46 r SOUND-ACTIVE;
#X obj 391 136 t b f;
#X obj 39 115 r TEMPOKNOB;
#X obj 583 294 s LAMP;
#X obj 68 61 t f f;
#X obj 324 244 i;
#X obj 324 266 + 1;
#X obj 324 217 t b f;
#X obj 324 310 pack f f;
#X obj 324 288 mod 256;
#X obj 324 333 s CLOCK;
#X obj 399 196 sel 0;
#X msg 399 218 -1;
#X obj 410 166 tgl 15 0 empty empty empty 17 7 0 10 -262144 -1 -1 0
1;
#X obj 391 115 t f f;
#X obj 399 240 spigot 1;
#X obj 377 163 && 1;
#X connect 0 0 2 0;
#X connect 0 0 3 1;
#X connect 1 0 3 0;
#X connect 1 0 9 0;
#X connect 2 0 1 0;
#X connect 3 0 4 0;
#X connect 5 0 26 0;
#X connect 6 0 1 0;
#X connect 7 0 1 0;
#X connect 7 0 4 0;
#X connect 8 0 37 0;
#X connect 10 0 7 0;
#X connect 10 1 6 0;
#X connect 11 1 12 0;
#X connect 12 0 13 0;
#X connect 12 1 16 0;
#X connect 13 0 14 0;
#X connect 14 0 15 0;
#X connect 15 0 36 0;
#X connect 16 0 36 0;
#X connect 17 0 11 0;
#X connect 18 0 24 0;
#X connect 20 0 21 0;
#X connect 21 0 32 0;
#X connect 22 0 20 0;
#X connect 22 1 21 1;
#X connect 23 0 8 0;
#X connect 24 0 25 0;
#X connect 25 0 19 0;
#X connect 26 0 27 0;
#X connect 28 0 40 0;
#X connect 29 0 30 0;
#X connect 30 0 47 0;
#X connect 31 0 28 0;
#X connect 32 0 18 0;
#X connect 33 0 49 0;
#X connect 34 0 49 0;
#X connect 34 1 49 1;
#X connect 35 0 20 0;
#X connect 37 0 22 0;
#X connect 37 1 10 0;
#X connect 38 0 39 0;
#X connect 39 0 42 0;
#X connect 40 0 38 0;
#X connect 40 1 41 1;
#X connect 41 0 43 0;
#X connect 42 0 41 0;
#X connect 44 0 45 0;
#X connect 45 0 48 0;
#X connect 47 0 34 0;
#X connect 47 1 48 1;
#X connect 48 0 43 0;
#X connect 49 0 28 1;
#X connect 49 0 44 0;
#X connect 49 0 46 0;
#X restore 233 104 pd CLOCK;
#N canvas 114 547 837 265 FRAISE 0;
#X obj 18 18 declare -stdpath Fraise -path kep;
#X obj 18 40 pied/pied 0 36631;
#X obj 469 65 fruit/fruit 1 phonel1 20 phonelec;
#N canvas 8 74 677 465 old-kep 0;
#X obj 277 182 r KEP0-snd;
#X floatatom 277 226 5 0 0 0 - - -, f 5;
#X obj 277 204 route b1 b2 b3 b4 b5;
#X obj 386 356 s SPEC-pattern-snd;
#X obj 386 310 list prepend _all_;
#X obj 386 335 list trim;
#X obj 386 262 line3;
#X floatatom 485 244 5 0 0 0 - - -, f 5;
#X msg 216 283 0 \$1;
#X msg 253 282 1 \$1;
#X msg 293 280 2 \$1;
#X msg 330 279 3 \$1;
#X obj 271 335 s rythmics-ctl;
#X msg 387 241 \$1 100;
#X obj 386 289 presetfadelin 0 1 2 3 4 5 6 7 8 9 10;
#X obj 53 142 l KEPfruit 1 KEP0 30;
#X obj 102 261 t f b;
#X obj 102 283 del;
#X msg 102 305 0;
#X msg 132 283 1;
#X obj 117 339 tgl 15 0 empty empty empty 17 7 0 10 -262144 -1 -1 0
1;
#X msg 117 361 lrouge \$1;
#X obj 117 385 s KEP0-rcv;
#X obj 102 239 / 8;
#X obj 62 194 r CLOCK;
#X obj 62 216 list split 1;
#X connect 0 0 2 0;
#X connect 2 0 1 0;
#X connect 2 0 8 0;
#X connect 2 1 9 0;
#X connect 2 2 10 0;
#X connect 2 3 11 0;
#X connect 2 4 13 0;
#X connect 2 4 7 0;
#X connect 4 0 5 0;
#X connect 5 0 3 0;
#X connect 6 0 14 0;
#X connect 8 0 12 0;
#X connect 9 0 12 0;
#X connect 10 0 12 0;
#X connect 11 0 12 0;
#X connect 13 0 6 0;
#X connect 14 0 4 0;
#X connect 16 0 17 0;
#X connect 16 1 19 0;
#X connect 17 0 18 0;
#X connect 18 0 20 0;
#X connect 19 0 20 0;
#X connect 20 0 21 0;
#X connect 21 0 22 0;
#X connect 23 0 16 0;
#X connect 24 0 25 0;
#X connect 25 1 23 0;
#X restore 729 16 pd old-kep;
#X obj 102 628 l ctlToner;
#X obj 258 17 fruit/fruit 1 phone1 10 phone;
#X obj 258 65 fruit/fruit 1 phone2 11 phone;
#X obj 469 17 fruit/fruit 1 phone3 12 phone;
#X obj 19 122 fruit/receive phonel1;
#X obj 317 167 route s;
#X obj 317 189 route 0;
#X msg 398 189 c 30 c \$1;
#X obj 398 168 tgl 15 0 empty empty empty 17 7 0 10 -262144 -1 -1 0
1;
#X obj 398 212 fruit/send2 phonel1;
#X obj 19 145 analog/parse, f 43;
#X obj 19 167 route 0 1 2, f 38;
#X obj 317 212 s MANUAL;
#X obj 194 190 / 8192;
#X obj 19 211 s elecPower;
#X obj 19 189 / 8192;
#X obj 194 213 s SCREENPATTERN;
#X obj 106 212 s TEMPOKNOB;
#X obj 106 190 / 8192;
#X obj 398 146 r LAMP;
#X connect 8 0 14 0;
#X connect 9 0 10 0;
#X connect 10 0 16 0;
#X connect 11 0 13 0;
#X connect 12 0 11 0;
#X connect 14 0 15 0;
#X connect 14 1 9 0;
#X connect 15 0 19 0;
#X connect 15 1 22 0;
#X connect 15 2 17 0;
#X connect 17 0 20 0;
#X connect 19 0 18 0;
#X connect 22 0 21 0;
#X connect 23 0 12 0;
#X restore 233 80 pd FRAISE;
#N canvas 6 74 450 300 ANALYS 0;
#X obj 36 240 outlet~;
#X obj 75 115 beatFollower~;
#X obj 100 159 bng 15 250 50 0 empty empty empty 17 7 0 10 -262144
-1 -1;
#X obj 202 190 unpack f;
#X floatatom 202 212 5 0 0 0 - - -, f 5;
#N canvas 62 248 681 293 autogain 0;
#X obj 57 31 inlet~;
#N canvas 37 510 450 300 peak-divide 0;
#X obj 176 30 inlet;
#X obj 176 71 max;
#X floatatom 58 126 5 0 0 0 - - -, f 5;
#X obj 176 237 outlet;
#X obj 176 117 +;
#X floatatom 376 169 5 0 0 0 - - -, f 5;
#X floatatom 96 242 5 0 0 0 - - -, f 5;
#X floatatom 264 155 5 0 0 0 - - -, f 5;
#X floatatom 284 108 5 0 0 0 - - -, f 5;
#X obj 207 71 * 0.997;
#X floatatom 364 197 5 0 0 0 - - -, f 5;
#X msg 299 46 0;
#X floatatom 218 219 5 0 0 0 - - -, f 5;
#X msg 176 190 1 \$1;
#X obj 176 212 /;
#X obj 176 170 + 0.05;
#X obj 176 145 pow 0.7;
#X obj 176 95 * 0.1;
#X obj 210 116 * 0.9;
#X connect 0 0 1 0;
#X connect 1 0 9 0;
#X connect 1 0 17 0;
#X connect 4 0 16 0;
#X connect 4 0 18 0;
#X connect 9 0 1 1;
#X connect 11 0 9 0;
#X connect 11 0 18 0;
#X connect 13 0 14 0;
#X connect 14 0 3 0;
#X connect 15 0 13 0;
#X connect 16 0 15 0;
#X connect 17 0 4 0;
#X connect 18 0 4 1;
#X restore 99 103 pd peak-divide;
#X obj 99 79 envrms~;
#X obj 58 189 *~;
#X obj 99 155 line~;
#X msg 99 133 \$1 500;
#X obj 58 211 outlet~;
#X floatatom 166 180 5 0 0 0 - - -, f 5;
#X obj 166 155 maxlib/speedlim 300;
#X connect 0 0 2 0;
#X connect 0 0 3 0;
#X connect 1 0 5 0;
#X connect 1 0 8 0;
#X connect 2 0 1 0;
#X connect 3 0 6 0;
#X connect 4 0 3 1;
#X connect 5 0 4 0;
#X connect 8 0 7 0;
#X restore 76 77 pd autogain;
#X obj 75 206 s TEMPO;
#X obj 323 42 env~;
#X obj 323 91 change;
#X obj 323 213 s SOUND-ACTIVE;
#X obj 323 122 sel 0 1;
#X obj 323 144 del 1500;
#X obj 323 191 change;
#X msg 323 166 0;
#X msg 356 166 1;
#X obj 287 216 tgl 15 0 empty empty empty 17 7 0 10 -262144 -1 -1 0
1;
#X msg 391 143 stop;
#X obj 75 184 spigot 1;
#X obj 128 143 r MANUAL;
#X obj 128 165 == 0;
#X obj 323 64 > 58;
#X obj 75 16 inlet~;
#X connect 1 0 2 0;
#X connect 1 0 3 0;
#X connect 1 0 17 0;
#X connect 3 0 4 0;
#X connect 5 0 1 0;
#X connect 5 0 0 0;
#X connect 7 0 20 0;
#X connect 8 0 10 0;
#X connect 10 0 11 0;
#X connect 10 1 14 0;
#X connect 10 1 16 0;
#X connect 11 0 13 0;
#X connect 12 0 9 0;
#X connect 12 0 15 0;
#X connect 13 0 12 0;
#X connect 14 0 12 0;
#X connect 16 0 11 0;
#X connect 17 0 6 0;
#X connect 18 0 19 0;
#X connect 19 0 17 1;
#X connect 20 0 8 0;
#X connect 21 0 5 0;
#X connect 21 0 7 0;
#X restore 47 63 pd ANALYS;
#X obj 233 210 rythmPhoneElec 1 4;
#X obj 308 323 s spotsAngleOffset;
#X floatatom 308 304 5 0 0 0 - - -, f 5;
#X obj 308 260 loadbang;
#X obj 234 135 rythmPhone 1 1;
#X msg 308 282 180;
#X obj 233 158 rythmPhone 2 2;
#X obj 233 182 rythmPhone 3 3;
#X obj 378 148 spot 1;
#X obj 378 208 spot 4;
#X obj 378 168 spot 2;
#X obj 378 188 spot 3;
#X connect 3 0 11 0;
#X connect 3 1 8 0;
#X connect 4 0 7 0;
#X connect 5 0 6 0;
#X connect 8 0 0 0;
#X connect 8 0 0 1;
#X connect 11 0 4 0;
#X connect 14 0 13 0;
#X connect 15 0 17 0;
#X connect 17 0 14 0;
