#N canvas 523 105 721 736 10;
#X declare -stdpath Fraise;
#X msg 272 385 c 30 c \$1;
#X msg 324 337 1;
#X obj 273 316 t b b;
#X msg 273 360 0;
#X obj 273 278 bng 30 80 50 0 empty empty empty 17 7 0 10 -4034 -1
-1;
#X obj 35 45 fruit/fruit 1 toner1 10 toner;
#X obj 250 547 fruit/send2 toner1;
#X msg 359 336 100;
#X msg 442 335 1;
#X obj 391 314 t b b;
#X msg 391 358 0;
#X obj 392 282 bng 30 80 50 0 empty empty empty 17 7 0 10 -4034 -1
-1;
#X msg 524 333 1;
#X obj 473 312 t b b;
#X msg 473 356 0;
#X obj 474 280 bng 30 80 50 0 empty empty empty 17 7 0 10 -4034 -1
-1;
#X obj 563 311 t b b;
#X msg 563 355 0;
#X obj 564 279 bng 30 80 50 0 empty empty empty 17 7 0 10 -4034 -1
-1;
#X obj 375 414 t a;
#X msg 390 383 c 31 c \$1;
#X msg 472 381 c 32 c \$1;
#X msg 562 380 c 33 c \$1;
#X msg 65 355 c 10 i \$1 c \$2;
#X obj 114 283 clip 0 3;
#X obj 115 257 hradio 15 1 0 4 empty empty empty 0 -8 0 10 -262144
-1 -1 2;
#X msg 83 331 \$1 0 \, \$1 1 \, \$1 2 \, \$1 3;
#X floatatom 135 198 8 0 0 0 - - -, f 8;
#X obj 141 172 hsl 128 15 300 6000 1 0 empty empty empty -2 -8 0 10
-262144 -1 -1 0 1;
#X obj 57 191 bng 30 70 30 0 empty empty empty 17 7 0 10 -257985 -1
-1;
#X obj 64 308 pack f 2;
#X msg 623 332 1;
#X msg 503 236 90;
#X obj 500 205 loadbang;
#X obj 35 23 declare -stdpath Fraise;
#X obj 337 52 r rythmics-action;
#X obj 337 74 route 0 1 2 3 4;
#X obj 273 337 del 80;
#X obj 391 336 del 80;
#X obj 473 334 del 80;
#X obj 563 333 del 80;
#X obj 65 246 f 6000;
#X connect 0 0 19 0;
#X connect 1 0 0 0;
#X connect 2 0 37 0;
#X connect 2 1 1 0;
#X connect 3 0 0 0;
#X connect 4 0 2 0;
#X connect 7 0 37 1;
#X connect 8 0 20 0;
#X connect 9 0 38 0;
#X connect 9 1 8 0;
#X connect 10 0 20 0;
#X connect 11 0 9 0;
#X connect 12 0 21 0;
#X connect 13 0 39 0;
#X connect 13 1 12 0;
#X connect 14 0 21 0;
#X connect 15 0 13 0;
#X connect 16 0 40 0;
#X connect 16 1 31 0;
#X connect 17 0 22 0;
#X connect 18 0 16 0;
#X connect 19 0 6 0;
#X connect 20 0 19 0;
#X connect 21 0 19 0;
#X connect 22 0 19 0;
#X connect 23 0 6 0;
#X connect 24 0 30 1;
#X connect 25 0 24 0;
#X connect 26 0 23 0;
#X connect 27 0 41 1;
#X connect 28 0 27 0;
#X connect 29 0 41 0;
#X connect 30 0 23 0;
#X connect 31 0 22 0;
#X connect 32 0 37 1;
#X connect 32 0 38 1;
#X connect 32 0 39 1;
#X connect 32 0 40 1;
#X connect 33 0 32 0;
#X connect 35 0 36 0;
#X connect 36 0 4 0;
#X connect 36 1 11 0;
#X connect 36 2 15 0;
#X connect 36 3 18 0;
#X connect 36 3 29 0;
#X connect 36 4 29 0;
#X connect 37 0 3 0;
#X connect 38 0 10 0;
#X connect 39 0 14 0;
#X connect 40 0 17 0;
#X connect 41 0 30 0;
