#N canvas 911 312 450 300 10;
#X obj 105 115 hsl 120 8 0 1 0 0 empty empty empty -2 -8 0 10 -228856
-1 -1 11900 1;
#X obj 102 182 outlet;
#X obj 102 51 inlet;
#X obj 257 123 apf \$1 \$2;
#X obj 210 158 r \$1-fadeTime;
#X obj 210 180 pow 2;
#X obj 210 202 * 10000;
#X obj 102 156 line3;
#X obj 102 133 pack f f;
#X obj 260 66 apf SCENE \$1-\$2;
#X obj 201 38 r \$1-\$2-rcv;
#X obj 202 242 s \$1-\$2-snd;
#X obj 260 88 spigot 1;
#X obj 370 18 loadbang;
#X obj 370 40 f \$3;
#X obj 370 62 sel 1;
#X msg 370 84 0;
#X text 32 6 fpar ref name [noscene];
#X connect 0 0 3 0;
#X connect 0 0 8 0;
#X connect 0 0 9 0;
#X connect 2 0 0 0;
#X connect 3 0 0 0;
#X connect 4 0 5 0;
#X connect 5 0 6 0;
#X connect 6 0 8 1;
#X connect 7 0 1 0;
#X connect 7 0 11 0;
#X connect 8 0 7 0;
#X connect 9 0 12 0;
#X connect 10 0 0 0;
#X connect 12 0 0 0;
#X connect 13 0 14 0;
#X connect 14 0 15 0;
#X connect 15 0 16 0;
#X connect 16 0 12 1;
#X coords 0 -1 1 1 130 23 1 100 100;
