#N canvas 319 93 1063 765 10;
#X declare -stdlib zexy;
#X declare -stdpath AutoPreset;
#X declare -stdpath nusmuk-utils;
#X declare -stdpath moonlib;
#X declare -lib pof -lib iemlib1 -stdpath iemlib;
#X declare -lib creb;
#X obj 50 21 pofhead;
#X obj 121 24 tgl 15 0 empty empty empty 17 7 0 10 -262144 -1 -1 0
1;
#X obj 50 51 pofvisible 1;
#X obj 604 343 dac~;
#X obj 781 242 b;
#X obj 781 263 t b b;
#X obj 781 285 timer;
#X floatatom 781 353 5 0 0 0 - - -, f 5;
#X obj 781 307 mavg 20;
#X msg 781 374 1000 \$1;
#X obj 781 396 /;
#X floatatom 781 418 5 0 0 0 - - -, f 5;
#X obj 50 80 t a a;
#X obj 259 618 pofcolor 1 1 1 1;
#X obj 259 592 poftranslate 0 0;
#X msg 407 615 clear 0;
#X obj 407 594 loadbang;
#X floatatom 368 562 5 0 0 0 - - -, f 5;
#X obj 259 550 pofshader;
#X obj 420 572 tgl 15 0 empty empty empty 17 7 0 10 -262144 -1 -1 0
1;
#X msg 273 437 play \$1;
#X obj 274 412 tgl 15 0 empty empty empty 17 7 0 10 -262144 -1 -1 0
1;
#N canvas 130 448 730 304 drawSpectrum2 0;
#X obj 89 38 inlet pofhead;
#X obj 311 19 inlet~;
#X msg 185 107 clear 0 0 0 1;
#X obj 89 60 poftranslate 0 10000;
#X obj 369 150 s SPECINDEX;
#X obj 493 19 inlet on;
#N canvas 548 89 578 460 hiSpec 0;
#X obj 21 16 inlet~;
#X obj 228 134 block~ 64 1 0.25;
#X msg 226 67 set 64 1 0.25;
#X msg 206 46 set 64 4 0.25;
#X obj 20 88 windowing/blackman~;
#X obj 20 114 rfft~;
#X obj 19 143 *~;
#X obj 50 143 *~;
#X obj 19 169 sqrt~;
#X obj 324 188 bang~;
#X obj 324 212 t b b;
#X obj 324 234 timer;
#X floatatom 324 278 5 0 0 0 - - -, f 5;
#X obj 282 21 loadbang;
#X obj 216 422 outlet;
#X obj 324 256 maxlib/speedlim 100;
#X msg 268 109 set 2048 64 0.25;
#X obj 216 301 i;
#X obj 216 345 mod 1024;
#X msg 216 390 setcolors 0 \$2 1024 \$1 \$1 \$1;
#X obj 216 275 spigot 1;
#X obj 296 307 tgl 15 0 empty empty empty 17 7 0 10 -262144 -1 -1 0
1;
#X msg 404 110 set 2048 \$1 0.25;
#X floatatom 446 49 5 1 128 0 - - -, f 5;
#X obj 19 196 min~ 1;
#X obj 36 61 *~ 4;
#X obj 36 39 hip~ 20000;
#X msg 254 88 set 2048 32 0.25;
#X obj 439 423 outlet;
#X obj 493 19 inlet on;
#X obj 227 160 table \$0-hiSpecII 1024;
#X obj 216 368 list prepend \$0-hiSpecII;
#X obj 19 218 tabsend~ \$0-hiSpecII;
#X msg 420 149 set 2048 8 1;
#X msg 419 202 set 2048 64 0.125;
#X msg 419 178 set 2048 16 0.5;
#X obj 216 323 - 1;
#X connect 0 0 4 0;
#X connect 0 0 26 0;
#X connect 2 0 1 0;
#X connect 3 0 1 0;
#X connect 4 0 5 0;
#X connect 5 0 6 0;
#X connect 5 0 6 1;
#X connect 5 1 7 0;
#X connect 5 1 7 1;
#X connect 6 0 8 0;
#X connect 7 0 8 0;
#X connect 8 0 24 0;
#X connect 9 0 10 0;
#X connect 9 0 20 0;
#X connect 10 0 11 0;
#X connect 10 1 11 1;
#X connect 11 0 15 0;
#X connect 13 0 35 0;
#X connect 15 0 12 0;
#X connect 16 0 1 0;
#X connect 17 0 36 0;
#X connect 18 0 17 1;
#X connect 18 0 28 0;
#X connect 18 0 31 0;
#X connect 19 0 14 0;
#X connect 20 0 17 0;
#X connect 21 0 20 1;
#X connect 22 0 1 0;
#X connect 23 0 22 0;
#X connect 24 0 32 0;
#X connect 25 0 4 0;
#X connect 26 0 25 0;
#X connect 27 0 1 0;
#X connect 29 0 20 1;
#X connect 31 0 19 0;
#X connect 33 0 1 0;
#X connect 34 0 1 0;
#X connect 35 0 1 0;
#X connect 36 0 18 0;
#X restore 309 125 pd hiSpec;
#X obj 89 82 t a a;
#X obj 89 155 pofimage HISPECIMG 1024 1024 HISPECTEX;
#X obj 310 73 lp10_butt~ 9500;
#X obj 310 95 *~ 0.03;
#X connect 0 0 3 0;
#X connect 1 0 9 0;
#X connect 2 0 8 0;
#X connect 3 0 7 0;
#X connect 5 0 6 1;
#X connect 6 0 8 0;
#X connect 6 1 4 0;
#X connect 7 0 8 0;
#X connect 9 0 10 0;
#X connect 10 0 6 0;
#X restore 323 380 pd drawSpectrum2;
#X obj 23 334 pofcolor 1 1 1 1;
#X obj 23 308 poftranslate 0 0;
#X obj 23 356 pofplane 1024 1024;
#X obj 24 218 t a a;
#X obj 96 287 * -1;
#X obj 59 488 pofcolor 1 1 1 1;
#X obj 59 462 poftranslate 0 0;
#X obj 59 510 pofplane 1024 1024;
#X obj 153 386 * -1;
#X obj 153 408 + 1024;
#X obj 124 237 r SPECINDEX;
#X obj 125 259 spigot 1;
#X obj 431 359 tgl 15 0 empty empty empty 17 7 0 10 -262144 -1 -1 0
1;
#X msg 212 145 set HISPECTEX;
#X msg 210 173 set LOSPECTEX;
#X floatatom 163 320 5 0 0 0 - - -, f 5;
#X floatatom 76 253 5 0 0 0 - - -, f 5;
#X obj 24 150 pofvisible;
#X obj 24 196 poftexture HISPECTEX;
#X obj 290 498 poftexture HISPECTEX;
#X obj 119 97 tgl 15 0 empty empty empty 17 7 0 10 -262144 -1 -1 0
1;
#X obj 119 149 pofvisible 1;
#X obj 119 117 == 0;
#X floatatom 392 675 5 0 0 0 - - -, f 5;
#X msg 739 517 load texturedcercle;
#X obj 103 74 pofbang 1;
#X obj 438 428 r SPECINDEX;
#X obj 677 609 hsl 128 15 0 1 0 0 empty empty empty -2 -8 0 10 -262144
-1 -1 0 1;
#X msg 680 644 f freqMax \$1;
#X msg 438 498 f specindex \$1;
#X obj 438 476 / 1024;
#X obj 827 616 hsl 128 15 0 1 0 0 empty empty empty -2 -8 0 10 -262144
-1 -1 0 1;
#X msg 830 651 f gain \$1;
#X obj 527 670 hsl 128 15 0 2 0 0 empty empty empty -2 -8 0 10 -262144
-1 -1 0 1;
#X msg 530 705 f compress \$1;
#X msg 716 704 f invert \$1;
#X obj 719 678 hsl 128 15 0 1 0 0 empty empty empty -2 -8 0 10 -262144
-1 -1 0 1;
#X obj 438 450 + 8;
#X msg 854 484 f smooothExt \$1;
#X obj 842 453 hsl 128 15 0 1 0 0 empty empty empty -2 -8 0 10 -262144
-1 -1 0 1;
#X obj 707 468 loadbang;
#X obj 707 490 t b b;
#X obj 259 641 pofplane 1300 1080;
#X obj 690 426 bng 15 250 50 0 empty empty empty 17 7 0 10 -262144
-1 -1;
#X obj 526 562 hsl 128 15 0 2 0 0 empty empty empty -2 -8 0 10 -262144
-1 -1 0 1;
#X msg 529 597 f fcompress \$1;
#X obj 907 651 hsl 128 15 0 1 0 0 empty empty empty -2 -8 0 10 -262144
-1 -1 0 1;
#X msg 910 686 f freqMin \$1;
#X floatatom 881 707 5 0 0 0 - - -, f 5;
#X floatatom 499 618 5 0 0 0 - - -, f 5;
#X obj 466 319 beatFollower~;
#X obj 480 361 bng 15 250 50 0 empty empty empty 17 7 0 10 -262144
-1 -1;
#X obj 522 378 unpack f;
#X floatatom 522 400 5 0 0 0 - - -, f 5;
#X obj 375 749 hsl 128 15 0 2 0 0 empty empty empty -2 -8 0 10 -262144
-1 -1 0 1;
#X msg 378 784 f spiGain \$1;
#X floatatom 411 709 5 0 0 0 - - -, f 5;
#X obj 572 735 hsl 128 15 0 2 0 0 empty empty empty -2 -8 0 10 -262144
-1 -1 0 1;
#X msg 575 770 f spiCompress \$1;
#X floatatom 726 739 5 0 0 0 - - -, f 5;
#X obj 37 715 specCtl SPEC;
#X msg 315 471 set HISPECTEX;
#N canvas 8 284 703 425 history 0;
#X obj 220 35 inlet~;
#X obj 444 162 table \$0-lowHistory 1024;
#X obj 105 15 r SPECINDEX;
#X obj 105 211 tabwrite \$0-lowHistory;
#X obj 224 191 tabwrite \$0-hiHistory;
#X obj 443 183 table \$0-hiHistory 1024;
#N canvas 34 519 450 300 peak-divide 0;
#X obj 144 26 inlet;
#X obj 176 71 max;
#X floatatom 58 126 5 0 0 0 - - -, f 5;
#X obj 144 235 outlet;
#X obj 144 48 t f f;
#X obj 144 212 /;
#X obj 176 117 +;
#X floatatom 221 196 5 0 0 0 - - -, f 5;
#X floatatom 96 242 5 0 0 0 - - -, f 5;
#X floatatom 262 143 5 0 0 0 - - -, f 5;
#X obj 176 144 pow 0.5;
#X floatatom 284 108 5 0 0 0 - - -, f 5;
#X obj 207 71 * 0.997;
#X obj 176 95 * 0.0025;
#X obj 210 116 * 0.9975;
#X obj 176 166 * 4;
#X floatatom 209 224 5 0 0 0 - - -, f 5;
#X connect 0 0 4 0;
#X connect 1 0 12 0;
#X connect 1 0 13 0;
#X connect 4 0 5 0;
#X connect 4 1 1 0;
#X connect 5 0 3 0;
#X connect 6 0 10 0;
#X connect 6 0 14 0;
#X connect 10 0 15 0;
#X connect 12 0 1 1;
#X connect 13 0 6 0;
#X connect 14 0 6 1;
#X connect 15 0 5 1;
#X restore 123 140 pd peak-divide;
#X obj 105 163 f;
#X obj 224 168 f;
#X obj 422 236 t b b;
#X obj 422 258 timer;
#X floatatom 422 280 5 0 0 0 - - -, f 5;
#X obj 425 83 /;
#X floatatom 425 105 5 0 0 0 - - -, f 5;
#X msg 425 61 256 44.1;
#X obj 123 113 envrms~ 4096 256;
#X obj 242 113 envrms~ 4096 256;
#X obj 123 90 lp10_butt~ 100;
#X obj 242 91 hp10_butt~ 500;
#X obj 37 53 inlet;
#X obj 37 389 pofimage HISTIMG 1024 2 HISTTEX;
#X obj 144 274 pack f f f;
#X obj 105 38 t b b f;
#X msg 237 333 setcolor \$3 0 \$1 \$1 \$1 1 \, setcolor \$3 1 \$2 \$2
\$2 1;
#X msg 118 316 0;
#X obj 37 352 poftranslate 0 10000;
#X msg 251 356 setcolor \$3 0 0 0 0 1 \, setcolor \$3 1 0 0 0 1;
#X msg 198 311 setcolor \$3 0 \$1 \$1 \$1 1 \, setcolor \$3 1 \$2 \$2
\$2 1;
#N canvas 58 525 450 300 peak-divide-old 0;
#X obj 144 26 inlet;
#X obj 176 71 max;
#X floatatom 58 126 5 0 0 0 - - -, f 5;
#X obj 207 71 * 0.99;
#X obj 144 235 outlet;
#X obj 144 48 t f f;
#X obj 144 212 /;
#X obj 176 117 +;
#X floatatom 210 196 5 0 0 0 - - -, f 5;
#X obj 176 95 * 0.005;
#X obj 210 116 * 0.995;
#X floatatom 96 242 5 0 0 0 - - -, f 5;
#X obj 176 144 pow 0.3;
#X floatatom 273 228 5 0 0 0 - - -, f 5;
#X connect 0 0 5 0;
#X connect 1 0 3 0;
#X connect 1 0 9 0;
#X connect 3 0 1 1;
#X connect 5 0 6 0;
#X connect 5 1 1 0;
#X connect 6 0 4 0;
#X connect 7 0 10 0;
#X connect 7 0 12 0;
#X connect 9 0 7 0;
#X connect 10 0 7 1;
#X connect 12 0 6 1;
#X restore 402 131 pd peak-divide-old;
#N canvas 35 516 450 300 peak-divide 0;
#X obj 144 26 inlet;
#X obj 176 71 max;
#X floatatom 58 126 5 0 0 0 - - -, f 5;
#X obj 144 235 outlet;
#X obj 144 48 t f f;
#X obj 144 212 /;
#X obj 176 117 +;
#X floatatom 221 196 5 0 0 0 - - -, f 5;
#X floatatom 96 242 5 0 0 0 - - -, f 5;
#X floatatom 262 143 5 0 0 0 - - -, f 5;
#X obj 176 144 pow 0.5;
#X floatatom 284 108 5 0 0 0 - - -, f 5;
#X obj 207 71 * 0.997;
#X obj 176 95 * 0.0025;
#X obj 210 116 * 0.9975;
#X obj 176 166 * 4;
#X floatatom 209 224 5 0 0 0 - - -, f 5;
#X connect 0 0 4 0;
#X connect 1 0 12 0;
#X connect 1 0 13 0;
#X connect 4 0 5 0;
#X connect 4 1 1 0;
#X connect 5 0 3 0;
#X connect 6 0 10 0;
#X connect 6 0 14 0;
#X connect 10 0 15 0;
#X connect 12 0 1 1;
#X connect 13 0 6 0;
#X connect 14 0 6 1;
#X connect 15 0 5 1;
#X restore 242 136 pd peak-divide;
#X connect 0 0 17 0;
#X connect 0 0 18 0;
#X connect 2 0 22 0;
#X connect 6 0 7 1;
#X connect 7 0 3 0;
#X connect 7 0 21 0;
#X connect 8 0 4 0;
#X connect 8 0 21 1;
#X connect 9 0 10 0;
#X connect 9 1 10 1;
#X connect 10 0 11 0;
#X connect 12 0 13 0;
#X connect 14 0 12 0;
#X connect 15 0 9 0;
#X connect 15 0 6 0;
#X connect 16 0 29 0;
#X connect 17 0 15 0;
#X connect 18 0 16 0;
#X connect 19 0 25 0;
#X connect 21 0 27 0;
#X connect 22 0 7 0;
#X connect 22 1 8 0;
#X connect 22 2 3 1;
#X connect 22 2 4 1;
#X connect 22 2 21 2;
#X connect 24 0 25 2;
#X connect 25 0 20 0;
#X connect 27 0 20 0;
#X connect 29 0 8 1;
#X restore 241 379 pd history;
#N canvas 61 251 450 300 autogain 0;
#X obj 165 25 inlet~;
#N canvas 37 510 450 300 peak-divide 0;
#X obj 176 30 inlet;
#X obj 176 71 max;
#X floatatom 58 126 5 0 0 0 - - -, f 5;
#X obj 176 237 outlet;
#X obj 176 117 +;
#X floatatom 376 169 5 0 0 0 - - -, f 5;
#X floatatom 96 242 5 0 0 0 - - -, f 5;
#X floatatom 264 155 5 0 0 0 - - -, f 5;
#X floatatom 284 108 5 0 0 0 - - -, f 5;
#X obj 207 71 * 0.997;
#X floatatom 364 197 5 0 0 0 - - -, f 5;
#X msg 299 46 0;
#X floatatom 218 219 5 0 0 0 - - -, f 5;
#X msg 176 190 1 \$1;
#X obj 176 212 /;
#X obj 176 170 + 0.05;
#X obj 176 145 pow 0.7;
#X obj 176 95 * 0.1;
#X obj 210 116 * 0.9;
#X connect 0 0 1 0;
#X connect 1 0 9 0;
#X connect 1 0 17 0;
#X connect 4 0 16 0;
#X connect 4 0 18 0;
#X connect 9 0 1 1;
#X connect 11 0 9 0;
#X connect 11 0 18 0;
#X connect 13 0 14 0;
#X connect 14 0 3 0;
#X connect 15 0 13 0;
#X connect 16 0 15 0;
#X connect 17 0 4 0;
#X connect 18 0 4 1;
#X restore 207 97 pd peak-divide;
#X obj 207 73 envrms~;
#X obj 166 183 *~;
#X obj 207 149 line~;
#X msg 207 127 \$1 500;
#X obj 166 205 outlet~;
#X floatatom 274 174 5 0 0 0 - - -, f 5;
#X obj 274 149 maxlib/speedlim 300;
#X connect 0 0 2 0;
#X connect 0 0 3 0;
#X connect 1 0 5 0;
#X connect 1 0 8 0;
#X connect 2 0 1 0;
#X connect 3 0 6 0;
#X connect 4 0 3 1;
#X connect 5 0 4 0;
#X connect 8 0 7 0;
#X restore 423 274 pd autogain;
#X obj 163 97 once;
#X floatatom 287 109 5 0 0 0 - - -, f 5;
#X obj 169 122 tgl 15 0 empty empty empty 17 7 0 10 -262144 -1 -1 0
1;
#X obj 452 804 hsl 128 15 0 1 0 0 empty empty empty -2 -8 0 10 -262144
-1 -1 0 1;
#X msg 450 824 f lowGainR \$1;
#X obj 603 794 hsl 128 15 0 1 0 0 empty empty empty -2 -8 0 10 -262144
-1 -1 0 1;
#X msg 599 816 f lowGainA \$1;
#X msg 797 757 tex fft_history HISPECTEX 0;
#X msg 658 546 f gain 0 \, f rMax 1 \, f freqMax 0.8 \, f compress
1.7 \, f smooothExt 0.05 \, f smooothInt 0.05 \, f invert 1 \, f freqMin
0.003 \, f fcompress 0.4 \, tex histTex HISTTEX 1 \, tex fft_history
HISPECTEX 0;
#X obj 445 853 hsl 128 15 0 1 0 0 empty empty empty -2 -8 0 10 -262144
-1 -1 0 1;
#X obj 596 843 hsl 128 15 0 1 0 0 empty empty empty -2 -8 0 10 -262144
-1 -1 0 1;
#X msg 438 873 f hiGainR \$1;
#X msg 593 865 f hiGainA \$1;
#X obj 604 321 *~ 0.05;
#X obj 781 328 maxlib/speedlim 300;
#N canvas 6 74 541 348 POFWIN 1;
#X obj 161 277 pofwin;
#X msg 308 173 framerate \$1;
#X msg 308 133 30;
#X msg 342 133 50;
#X msg 374 133 60;
#X floatatom 308 155 5 0 0 0 - - -, f 5;
#X obj 81 22 loadbang;
#X msg 310 204 cursor 0;
#X msg 212 92 window 1024 1024 1 \, framerate 60 \, cursor 0;
#X msg 161 121 background 0 0 0 1;
#X msg 81 173 build;
#X obj 81 151 del 2000;
#X msg 203 162 666;
#X msg 206 58 window 1920 1080 1 \, framerate 60 \, cursor 0;
#X floatatom 202 189 5 0 0 0 - - -, f 5;
#X connect 1 0 0 0;
#X connect 2 0 5 0;
#X connect 3 0 5 0;
#X connect 4 0 5 0;
#X connect 5 0 1 0;
#X connect 6 0 9 0;
#X connect 6 0 11 0;
#X connect 6 0 13 0;
#X connect 7 0 0 0;
#X connect 8 0 0 0;
#X connect 9 0 0 0;
#X connect 10 0 0 0;
#X connect 10 0 12 0;
#X connect 11 0 10 0;
#X connect 12 0 14 0;
#X connect 13 0 0 0;
#X restore 232 17 pd POFWIN;
#N canvas 5 74 675 271 DECLARES/AP/PATHS 0;
#X obj 37 43 declare -stdlib zexy;
#X obj 37 62 declare -stdpath AutoPreset;
#X obj 37 24 declare -stdpath nusmuk-utils;
#X obj 37 81 declare -stdpath moonlib;
#X obj 41 164 apmaster ALL;
#X obj 41 235 apmasterfile ALL preset.txt;
#X obj 225 216 bng 15 250 50 0 empty empty empty 17 7 0 10 -258113
-1 -1;
#X obj 41 214 bng 15 250 50 0 empty empty empty 17 7 0 10 -4034 -1
-1;
#X obj 41 190 loadbang;
#X obj 309 167 motex/getenv HOME;
#X obj 309 110 bng 15 250 50 0 empty empty empty 17 7 0 10 -262144
-1 -1;
#X msg 309 188 symbol \$1/Datas/FTBOPEV/;
#X obj 309 210 s DATASDIR;
#X obj 309 87 loadbang;
#X msg 322 128 \; pd dsp 1;
#X obj 272 22 declare -lib pof -lib iemlib1 -stdpath iemlib;
#X obj 37 101 declare -lib creb;
#X connect 6 0 5 1;
#X connect 7 0 5 0;
#X connect 8 0 7 0;
#X connect 9 0 11 0;
#X connect 10 0 9 0;
#X connect 10 0 14 0;
#X connect 11 0 12 0;
#X connect 13 0 10 0;
#X restore 307 17 pd DECLARES/AP/PATHS;
#N canvas 4 74 526 467 AUDIO_SRC 0;
#X obj 221 326 pack f s;
#X obj 286 306 r DATASDIR;
#X obj 221 371 readsf~ 2 1e+06;
#X msg 221 348 stop \, open \$2/Groupe\$1.wav \, start;
#X msg 200 286 1;
#X msg 230 286 2;
#X msg 266 285 3;
#X msg 299 284 4;
#X obj 163 139 osc~;
#X obj 233 32 tgl 15 0 empty empty empty 17 7 0 10 -262144 -1 -1 0
1;
#X obj 233 102 + 10;
#X obj 233 55 metro 5;
#X obj 233 80 random 20000;
#X obj 233 122 f;
#X msg 277 29 5;
#X msg 317 26 500;
#X msg 180 338 stop;
#X obj 164 71 mtof;
#X floatatom 162 53 5 0 0 0 - - -, f 5;
#X obj 162 116 line~;
#X msg 162 94 \$1 50;
#X floatatom 292 54 5 0 0 0 - - -, f 5;
#X obj 163 162 *~;
#X obj 288 127 metro 500;
#X obj 288 149 del 100;
#X msg 303 172 0;
#X msg 263 151 1;
#X obj 303 104 tgl 15 0 empty empty empty 17 7 0 10 -262144 -1 -1 0
1;
#X floatatom 117 122 5 0 0 0 - - -, f 5;
#X obj 333 187 bng 15 250 50 0 empty empty empty 17 7 0 10 -262144
-1 -1;
#X obj 285 233 ead~ 50 350;
#X obj 47 45 adc~;
#X obj 163 434 outlet~;
#X connect 0 0 3 0;
#X connect 1 0 0 1;
#X connect 2 0 32 0;
#X connect 2 1 32 0;
#X connect 3 0 2 0;
#X connect 4 0 0 0;
#X connect 5 0 0 0;
#X connect 6 0 0 0;
#X connect 7 0 0 0;
#X connect 8 0 22 0;
#X connect 9 0 11 0;
#X connect 10 0 13 0;
#X connect 11 0 12 0;
#X connect 12 0 10 0;
#X connect 13 0 19 0;
#X connect 14 0 11 1;
#X connect 15 0 11 1;
#X connect 16 0 2 0;
#X connect 17 0 20 0;
#X connect 17 0 28 0;
#X connect 18 0 17 0;
#X connect 19 0 8 0;
#X connect 20 0 19 0;
#X connect 21 0 11 1;
#X connect 22 0 32 0;
#X connect 23 0 24 0;
#X connect 23 0 26 0;
#X connect 23 0 30 0;
#X connect 24 0 25 0;
#X connect 27 0 23 0;
#X connect 29 0 30 0;
#X connect 30 0 22 1;
#X connect 31 0 32 0;
#X restore 423 244 pd AUDIO_SRC;
#X obj 521 352 s TEMPO;
#N canvas 5 74 450 300 Visual 1;
#X restore 642 77 pd Visual;
#X connect 0 0 2 0;
#X connect 1 0 2 0;
#X connect 2 0 12 0;
#X connect 4 0 5 0;
#X connect 5 0 6 0;
#X connect 5 1 6 1;
#X connect 6 0 8 0;
#X connect 7 0 9 0;
#X connect 8 0 101 0;
#X connect 9 0 10 0;
#X connect 10 0 11 0;
#X connect 12 0 40 0;
#X connect 12 0 44 0;
#X connect 12 1 22 0;
#X connect 12 1 48 0;
#X connect 12 1 85 0;
#X connect 13 0 65 0;
#X connect 14 0 13 0;
#X connect 16 0 15 0;
#X connect 17 0 65 1;
#X connect 18 0 14 0;
#X connect 19 0 13 4;
#X connect 20 0 18 0;
#X connect 21 0 20 0;
#X connect 23 0 25 0;
#X connect 24 0 23 0;
#X connect 26 0 24 0;
#X connect 26 1 29 0;
#X connect 27 0 24 2;
#X connect 28 0 30 0;
#X connect 29 0 28 0;
#X connect 31 0 32 0;
#X connect 32 0 29 2;
#X connect 33 0 34 0;
#X connect 34 0 27 0;
#X connect 34 0 31 0;
#X connect 35 0 22 2;
#X connect 36 0 41 0;
#X connect 37 0 41 0;
#X connect 38 0 25 1;
#X connect 38 0 30 1;
#X connect 39 0 24 1;
#X connect 39 0 29 1;
#X connect 40 0 41 0;
#X connect 41 0 26 0;
#X connect 43 0 40 0;
#X connect 43 0 45 0;
#X connect 44 0 18 0;
#X connect 45 0 44 0;
#X connect 46 0 65 2;
#X connect 46 0 65 1;
#X connect 47 0 18 0;
#X connect 48 1 4 0;
#X connect 48 1 87 0;
#X connect 49 0 60 0;
#X connect 50 0 51 0;
#X connect 51 0 18 0;
#X connect 52 0 18 0;
#X connect 53 0 52 0;
#X connect 54 0 55 0;
#X connect 55 0 18 0;
#X connect 56 0 57 0;
#X connect 57 0 18 0;
#X connect 58 0 18 0;
#X connect 59 0 58 0;
#X connect 60 0 53 0;
#X connect 61 0 18 0;
#X connect 62 0 61 0;
#X connect 63 0 64 0;
#X connect 64 0 95 0;
#X connect 64 1 47 0;
#X connect 66 0 64 0;
#X connect 67 0 68 0;
#X connect 67 0 72 0;
#X connect 68 0 18 0;
#X connect 69 0 70 0;
#X connect 69 0 71 0;
#X connect 70 0 18 0;
#X connect 73 0 74 0;
#X connect 73 0 75 0;
#X connect 73 0 105 0;
#X connect 75 0 76 0;
#X connect 77 0 78 0;
#X connect 78 0 18 0;
#X connect 79 0 78 0;
#X connect 80 0 81 0;
#X connect 81 0 18 0;
#X connect 82 0 81 0;
#X connect 83 0 18 0;
#X connect 84 0 42 0;
#X connect 86 0 100 0;
#X connect 86 0 73 0;
#X connect 86 0 22 1;
#X connect 86 0 85 1;
#X connect 89 0 44 0;
#X connect 90 0 91 0;
#X connect 91 0 18 0;
#X connect 92 0 93 0;
#X connect 93 0 18 0;
#X connect 94 0 18 0;
#X connect 95 0 18 0;
#X connect 96 0 98 0;
#X connect 97 0 99 0;
#X connect 98 0 18 0;
#X connect 99 0 18 0;
#X connect 100 0 3 0;
#X connect 100 0 3 1;
#X connect 101 0 7 0;
#X connect 104 0 86 0;
