#N canvas 4 74 498 400 10;
#X declare -stdpath list-abs;
#X obj 22 18 inlet;
#X obj 132 16 declare -stdpath list-abs;
#X obj 74 135 list-find;
#X msg 22 40 \$2 \$1;
#X obj 134 112 r \$0-list;
#X obj 74 232 list-delete;
#X obj 74 157 t b f;
#X obj 99 185 r \$0-list;
#X obj 74 209 list;
#X obj 74 255 s \$0-list;
#X obj 96 296 r \$0-list;
#X obj 22 317 list append;
#X obj 22 342 s \$0-list;
#X obj 261 113 r \$0-list;
#X obj 22 88 t f f;
#X obj 328 160 list split 1;
#X obj 261 135 route bang;
#X msg 261 157 -1;
#X obj 261 200 outlet;
#X obj 22 62 route 1 0;
#X text 60 89 remove before adding;
#X connect 0 0 3 0;
#X connect 2 0 6 0;
#X connect 3 0 19 0;
#X connect 4 0 2 1;
#X connect 5 0 9 0;
#X connect 6 0 8 0;
#X connect 6 1 5 1;
#X connect 7 0 8 1;
#X connect 8 0 5 0;
#X connect 10 0 11 1;
#X connect 11 0 12 0;
#X connect 13 0 16 0;
#X connect 14 0 11 0;
#X connect 14 1 2 0;
#X connect 15 0 18 0;
#X connect 16 0 17 0;
#X connect 16 1 15 0;
#X connect 17 0 18 0;
#X connect 19 0 14 0;
#X connect 19 1 2 0;
