#N canvas 11 194 1046 536 10;
#X obj 45 213 r CLOCK;
#X obj 45 359 ndmetro 4 4;
#X obj 45 408 sel 1;
#X obj 23 413 bng 15 50 50 0 empty empty empty 17 7 0 10 -262144 -1
-1;
#X obj 271 33 i;
#X floatatom 312 35 5 0 0 0 - - -, f 5;
#X obj 329 317 phonekeys;
#X obj 63 239 r \$0-ndmetroA;
#X obj 45 386 tabread \$0-seqA;
#X obj 47 12 table \$0-seqA 32;
#X obj 47 33 table \$0-seqB 32;
#X obj 271 7 r \$0-Key;
#X obj 46 106 list split 2;
#X obj 86 130 list prepend 0;
#X obj 86 152 s \$0-seqA;
#X obj 46 173 s \$0-ndmetroA;
#X obj 271 241 s \$0-seqs;
#X obj 46 61 r \$0-seqs;
#X obj 316 194 s \$0-seqs;
#X obj 271 55 sel 1 2 3 4 5 6 7 8 9 0 10 11, f 79;
#X obj 362 148 s \$0-seqs;
#X obj 408 102 s \$0-seqs;
#X obj 591 100 s \$0-seqs;
#X obj 546 145 s \$0-seqs;
#X obj 637 242 s \$0-seqs;
#X obj 684 192 s \$0-seqs;
#X obj 455 241 s \$0-seqs;
#X obj 500 192 s \$0-seqs;
#X obj 729 144 s \$0-seqs;
#X obj 775 101 s \$0-seqs;
#X obj 329 342 unpack f f;
#X obj 329 364 moses 12, f 12;
#X obj 329 388 pack f f;
#X obj 410 388 pack f f;
#X obj 329 411 lastKeyOn;
#X obj 382 456 s \$0-Key;
#X obj 329 433 route -1;
#X floatatom 341 458 5 0 0 0 - - -, f 5;
#X obj 63 262 unpack f f;
#X obj 63 305 pack f f;
#X obj 142 262 t b b f;
#X obj 537 470 s \$0-Accel;
#X obj 502 298 route 12 13;
#X obj 502 331 tgl 15 0 empty empty empty 17 7 0 10 -262144 -1 -1 0
1;
#X obj 539 332 tgl 15 0 empty empty empty 17 7 0 10 -262144 -1 -1 0
1;
#X obj 502 351 sel 1;
#X obj 549 351 sel 1;
#X obj 502 404 +;
#X obj 537 404 clip -1 1;
#X floatatom 490 448 5 0 0 0 - - -, f 5;
#X floatatom 590 433 5 0 0 0 - - -, f 5;
#X msg 537 427 2 \$1;
#X obj 537 449 pow;
#X obj 163 240 r \$0-Accel;
#X msg 63 329 nd \$1 \$2;
#X msg 502 373 1;
#X msg 549 373 -1;
#X obj 130 286 * 1;
#X obj 329 295 fruit/receive phonel\$1;
#X msg 45 455 c 10 i \$1 c 0;
#X obj 100 410 r elecPower;
#X obj 100 432 * 6000;
#X obj 45 432 f;
#X obj 46 83 route A, f 12;
#X msg 271 219 A 2 1 1 0;
#X obj 45 479 fruit/send2 phonel\$1;
#X msg 316 172 A 2 2 1 0;
#X msg 362 126 A 4 1 1 0 0 1;
#X msg 408 80 A 4 2 1 1 0 0;
#X msg 455 219 A 8 2 1 1 0 1 1 0 1 1;
#X msg 500 170 A 8 2 1 0 0 1 0 0 1 0;
#X msg 546 123 A 8 2 1 0 0 1 1 0 1 0;
#X msg 637 220 A 8 4 1 0 0 1 1 0 1 0;
#X msg 591 78 A 8 4 1 0 0 1 0 0 1 0;
#X msg 684 170 A 8 4 1 1 1 0 1 1 0 0;
#X msg 729 122 A 16 4 1 0 1 0 1 0 0 0 1 0 1 0 1 0 0 0;
#X msg 775 77 A 16 4 1 0 0 0 1 1 0 0 1 0 0 0 1 0 0 1;
#X floatatom 154 436 5 0 0 0 - - -, f 5;
#X obj 689 299 lastKeyOn;
#X obj 689 321 route -1;
#X obj 742 344 - 12;
#X floatatom 742 366 5 0 0 0 - - -, f 5;
#X obj 742 385 sel 0 1 2 3;
#X connect 0 0 1 0;
#X connect 1 0 8 0;
#X connect 2 0 3 0;
#X connect 2 0 62 0;
#X connect 4 0 5 0;
#X connect 4 0 19 0;
#X connect 6 0 30 0;
#X connect 7 0 38 0;
#X connect 8 0 2 0;
#X connect 11 0 4 0;
#X connect 12 0 15 0;
#X connect 12 1 13 0;
#X connect 13 0 14 0;
#X connect 17 0 63 0;
#X connect 19 0 64 0;
#X connect 19 1 66 0;
#X connect 19 2 67 0;
#X connect 19 3 68 0;
#X connect 19 4 69 0;
#X connect 19 5 70 0;
#X connect 19 6 71 0;
#X connect 19 7 73 0;
#X connect 19 8 72 0;
#X connect 19 9 74 0;
#X connect 19 10 75 0;
#X connect 19 11 76 0;
#X connect 30 0 31 0;
#X connect 30 1 32 1;
#X connect 30 1 33 1;
#X connect 31 0 32 0;
#X connect 31 1 33 0;
#X connect 32 0 34 0;
#X connect 33 0 42 0;
#X connect 34 0 36 0;
#X connect 36 1 35 0;
#X connect 36 1 37 0;
#X connect 38 0 39 0;
#X connect 38 1 57 0;
#X connect 39 0 54 0;
#X connect 40 0 39 0;
#X connect 40 1 57 0;
#X connect 40 2 57 1;
#X connect 42 0 43 0;
#X connect 42 1 44 0;
#X connect 43 0 45 0;
#X connect 44 0 46 0;
#X connect 45 0 55 0;
#X connect 46 0 56 0;
#X connect 47 0 48 0;
#X connect 48 0 47 1;
#X connect 48 0 51 0;
#X connect 48 0 50 0;
#X connect 51 0 52 0;
#X connect 52 0 49 0;
#X connect 52 0 41 0;
#X connect 53 0 40 0;
#X connect 54 0 1 0;
#X connect 55 0 47 0;
#X connect 56 0 47 0;
#X connect 57 0 39 1;
#X connect 58 0 6 0;
#X connect 59 0 65 0;
#X connect 60 0 61 0;
#X connect 61 0 62 1;
#X connect 61 0 77 0;
#X connect 62 0 59 0;
#X connect 63 0 12 0;
#X connect 64 0 16 0;
#X connect 66 0 18 0;
#X connect 67 0 20 0;
#X connect 68 0 21 0;
#X connect 69 0 26 0;
#X connect 70 0 27 0;
#X connect 71 0 23 0;
#X connect 72 0 24 0;
#X connect 73 0 22 0;
#X connect 74 0 25 0;
#X connect 75 0 28 0;
#X connect 76 0 29 0;
#X connect 78 0 79 0;
#X connect 79 1 80 0;
#X connect 80 0 81 0;
#X connect 81 0 82 0;
