#N canvas 565 352 766 391 10;
#X obj 113 21 r TEMPO;
#X obj 255 20 r rythmics-ctl;
#X obj 255 42 route \$1;
#X obj 71 73 r CLOCK;
#X obj 71 128 ndmetro 4 4;
#X obj 145 72 r \$0-ndmetro;
#X obj 261 229 list split 2;
#X obj 237 293 s \$0-ndmetro;
#X msg 237 268 nd \$1 \$2;
#X obj 341 269 list prepend 0;
#X obj 407 39 table \$0-seq 32;
#X obj 341 291 s \$0-seq;
#X obj 71 155 tabread \$0-seq;
#X obj 71 177 sel 1;
#X obj 71 199 list prepend \$1;
#X obj 71 221 s rythmics-action;
#X msg 387 188 2 2 1 0;
#X msg 448 187 2 2 0 1;
#X msg 261 189 2 1 1 0;
#X msg 322 188 2 1 0 1;
#X obj 44 200 bng 15 250 50 0 empty empty empty 17 7 0 10 -262144 -1
-1;
#X msg 513 186 2 2 1 1;
#X msg 579 187 4 4 1 0 0 1;
#X obj 261 81 * 5.9;
#X obj 261 103 i;
#X floatatom 302 105 5 0 0 0 - - -, f 5;
#X obj 261 125 sel 0 1 2 3 4 5 6 7 8 9, f 51;
#X obj 586 240 bng 15 250 50 0 empty empty empty 17 7 0 10 -262144
-1 -1;
#X obj 524 237 bng 15 250 50 0 empty empty empty 17 7 0 10 -262144
-1 -1;
#X connect 1 0 2 0;
#X connect 2 0 23 0;
#X connect 3 0 4 0;
#X connect 4 0 12 0;
#X connect 5 0 4 0;
#X connect 6 0 8 0;
#X connect 6 1 9 0;
#X connect 8 0 7 0;
#X connect 9 0 11 0;
#X connect 12 0 13 0;
#X connect 13 0 14 0;
#X connect 13 0 20 0;
#X connect 14 0 15 0;
#X connect 16 0 6 0;
#X connect 17 0 6 0;
#X connect 18 0 6 0;
#X connect 19 0 6 0;
#X connect 21 0 6 0;
#X connect 21 0 28 0;
#X connect 22 0 6 0;
#X connect 22 0 27 0;
#X connect 23 0 24 0;
#X connect 24 0 25 0;
#X connect 24 0 26 0;
#X connect 26 0 18 0;
#X connect 26 1 19 0;
#X connect 26 2 16 0;
#X connect 26 3 17 0;
#X connect 26 4 21 0;
#X connect 26 5 22 0;
