#N canvas 12 131 1313 577 10;
#X obj 317 160 r TEMPO;
#X obj 11 211 r CLOCK;
#X obj 11 357 ndmetro 4 4;
#X obj 11 406 sel 1;
#X obj 59 406 bng 15 250 50 0 empty empty empty 17 7 0 10 -262144 -1
-1;
#X obj 403 50 i;
#X floatatom 444 52 5 0 0 0 - - -, f 5;
#X obj 375 348 phonekeys;
#X obj 375 326 fruit/receive phone\$1;
#X obj 11 547 fruit/send2 phone\$1;
#X msg 11 515 c 10 c \$1;
#X msg 196 510 c 11 c \$1;
#X msg 68 467 1;
#X msg 11 488 0;
#X obj 11 441 t b b;
#X msg 255 462 1;
#X msg 196 484 0;
#X obj 196 436 t b b;
#X obj 29 237 r \$0-ndmetroA;
#X obj 11 384 tabread \$0-seqA;
#X obj 205 9 table \$0-seqA 32;
#X obj 205 30 table \$0-seqB 32;
#X obj 196 212 r CLOCK;
#X obj 196 358 ndmetro 4 4;
#X obj 196 407 sel 1;
#X obj 213 239 r \$0-ndmetroB;
#X obj 196 385 tabread \$0-seqB;
#X obj 174 407 bng 15 250 50 0 empty empty empty 17 7 0 10 -262144
-1 -1;
#X obj 403 24 r \$0-Key;
#X obj 9 76 list split 2;
#X obj 49 100 list prepend 0;
#X obj 9 53 route A B, f 44;
#X obj 49 122 s \$0-seqA;
#X obj 9 143 s \$0-ndmetroA;
#X obj 161 76 list split 2;
#X obj 201 100 list prepend 0;
#X obj 201 122 s \$0-seqB;
#X obj 161 143 s \$0-ndmetroB;
#X obj 403 258 s \$0-seqs;
#X obj 9 31 r \$0-seqs;
#X msg 448 189 A 2 1 1 0 \, B 2 1 0 1;
#X msg 403 236 A 2 1 1 0 \, B 2 1 1 0;
#X obj 448 211 s \$0-seqs;
#X obj 403 72 sel 1 2 3 4 5 6 7 8 9 0 10 11, f 79;
#X msg 494 143 A 2 2 1 0 \, B 2 2 1 0;
#X obj 494 165 s \$0-seqs;
#X obj 540 119 s \$0-seqs;
#X msg 540 97 A 2 2 1 0 \, B 2 2 0 1;
#X obj 723 117 s \$0-seqs;
#X obj 678 162 s \$0-seqs;
#X msg 678 140 A 2 1 1 0 \, B 2 2 1 1;
#X msg 723 95 A 2 2 1 0 \, B 2 2 1 1;
#X obj 769 282 s \$0-seqs;
#X msg 769 260 A 2 2 1 0 \, B 4 4 1 0 0 1;
#X obj 828 235 s \$0-seqs;
#X msg 828 213 A 2 2 1 0 \, B 8 4 1 0 1 0 1 0 0 1;
#X obj 588 256 s \$0-seqs;
#X msg 588 234 A 2 2 1 0 \, B 8 2 1 0 0 0 1 0 0 1;
#X obj 632 209 s \$0-seqs;
#X msg 632 187 A 2 2 1 0 \, B 8 2 1 1 0 0 1 0 0 1;
#X obj 868 185 s \$0-seqs;
#X obj 882 135 s \$0-seqs;
#X msg 868 163 A 4 2 1 0 0 1 \, B 8 4 0 1 0 0 0 1 0 0;
#X msg 882 97 A 4 2 1 1 0 0 \, B 16 4 1 0 0 1 0 0 1 0 0 1 0 0 1 0 0
1 0 0 1 0 0;
#X floatatom 252 406 5 0 0 0 - - -, f 5;
#X obj 11 466 del 100;
#X obj 196 463 del 100;
#X obj 213 262 unpack f f;
#X obj 213 305 pack f f;
#X obj 292 262 t b b f;
#X obj 375 373 unpack f f;
#X obj 375 395 moses 12, f 12;
#X obj 375 419 pack f f;
#X obj 456 419 pack f f;
#X obj 375 442 lastKeyOn;
#X obj 428 487 s \$0-Key;
#X obj 375 464 route -1;
#X obj 854 370 lastKeyOn;
#X obj 854 392 route -1;
#X obj 945 357 - 12;
#X floatatom 945 379 5 0 0 0 - - -, f 5;
#X floatatom 387 489 5 0 0 0 - - -, f 5;
#X obj 29 260 unpack f f;
#X obj 29 303 pack f f;
#X obj 108 260 t b b f;
#X obj 594 501 s \$0-Accel;
#X obj 945 398 sel 0 1 2 3;
#X obj 559 362 tgl 15 0 empty empty empty 17 7 0 10 -262144 -1 -1 0
1;
#X obj 596 363 tgl 15 0 empty empty empty 17 7 0 10 -262144 -1 -1 0
1;
#X obj 559 382 sel 1;
#X obj 606 382 sel 1;
#X obj 559 435 +;
#X obj 594 435 clip -1 1;
#X floatatom 547 479 5 0 0 0 - - -, f 5;
#X floatatom 647 464 5 0 0 0 - - -, f 5;
#X msg 594 458 2 \$1;
#X obj 594 480 pow;
#X obj 317 237 r \$0-Accel;
#X obj 129 238 r \$0-Accel;
#X msg 29 327 nd \$1 \$2;
#X msg 213 331 nd \$1 \$2;
#X msg 559 404 1;
#X msg 606 404 -1;
#X obj 96 284 * 1;
#X obj 280 286 * 1;
#X obj 559 329 route 12 13 14 15;
#X obj 667 365 tgl 15 0 empty empty empty 17 7 0 10 -262144 -1 -1 0
1;
#X obj 704 366 tgl 15 0 empty empty empty 17 7 0 10 -262144 -1 -1 0
1;
#X obj 704 385 sel 1;
#X obj 704 432 s \$0-seqs;
#X msg 704 410 A 1 1 0 \, B 1 1 0;
#X connect 1 0 2 0;
#X connect 2 0 19 0;
#X connect 3 0 4 0;
#X connect 3 0 14 0;
#X connect 5 0 6 0;
#X connect 5 0 43 0;
#X connect 7 0 70 0;
#X connect 8 0 7 0;
#X connect 10 0 9 0;
#X connect 11 0 9 0;
#X connect 12 0 10 0;
#X connect 13 0 10 0;
#X connect 14 0 65 0;
#X connect 14 1 12 0;
#X connect 15 0 11 0;
#X connect 16 0 11 0;
#X connect 17 0 66 0;
#X connect 17 1 15 0;
#X connect 18 0 82 0;
#X connect 19 0 3 0;
#X connect 22 0 23 0;
#X connect 23 0 26 0;
#X connect 24 0 17 0;
#X connect 24 0 27 0;
#X connect 25 0 67 0;
#X connect 26 0 24 0;
#X connect 28 0 5 0;
#X connect 29 0 33 0;
#X connect 29 1 30 0;
#X connect 30 0 32 0;
#X connect 31 0 29 0;
#X connect 31 1 34 0;
#X connect 34 0 37 0;
#X connect 34 1 35 0;
#X connect 35 0 36 0;
#X connect 39 0 31 0;
#X connect 40 0 42 0;
#X connect 41 0 38 0;
#X connect 43 0 41 0;
#X connect 43 1 40 0;
#X connect 43 2 44 0;
#X connect 43 3 47 0;
#X connect 43 4 57 0;
#X connect 43 5 59 0;
#X connect 43 6 50 0;
#X connect 43 7 51 0;
#X connect 43 8 53 0;
#X connect 43 9 55 0;
#X connect 43 10 62 0;
#X connect 43 11 63 0;
#X connect 44 0 45 0;
#X connect 47 0 46 0;
#X connect 50 0 49 0;
#X connect 51 0 48 0;
#X connect 53 0 52 0;
#X connect 55 0 54 0;
#X connect 57 0 56 0;
#X connect 59 0 58 0;
#X connect 62 0 60 0;
#X connect 63 0 61 0;
#X connect 64 0 65 1;
#X connect 64 0 66 1;
#X connect 65 0 13 0;
#X connect 66 0 16 0;
#X connect 67 0 68 0;
#X connect 67 1 104 0;
#X connect 68 0 100 0;
#X connect 69 0 68 0;
#X connect 69 1 104 0;
#X connect 69 2 104 1;
#X connect 70 0 71 0;
#X connect 70 1 72 1;
#X connect 70 1 73 1;
#X connect 71 0 72 0;
#X connect 71 1 73 0;
#X connect 72 0 74 0;
#X connect 73 0 105 0;
#X connect 74 0 76 0;
#X connect 76 1 75 0;
#X connect 76 1 81 0;
#X connect 77 0 78 0;
#X connect 78 1 79 0;
#X connect 79 0 80 0;
#X connect 80 0 86 0;
#X connect 82 0 83 0;
#X connect 82 1 103 0;
#X connect 83 0 99 0;
#X connect 84 0 83 0;
#X connect 84 1 103 0;
#X connect 84 2 103 1;
#X connect 87 0 89 0;
#X connect 88 0 90 0;
#X connect 89 0 101 0;
#X connect 90 0 102 0;
#X connect 91 0 92 0;
#X connect 92 0 91 1;
#X connect 92 0 95 0;
#X connect 92 0 94 0;
#X connect 95 0 96 0;
#X connect 96 0 93 0;
#X connect 96 0 85 0;
#X connect 97 0 69 0;
#X connect 98 0 84 0;
#X connect 99 0 2 0;
#X connect 100 0 23 0;
#X connect 101 0 91 0;
#X connect 102 0 91 0;
#X connect 103 0 83 1;
#X connect 104 0 68 1;
#X connect 105 0 87 0;
#X connect 105 1 88 0;
#X connect 105 2 106 0;
#X connect 105 3 107 0;
#X connect 107 0 108 0;
#X connect 108 0 110 0;
#X connect 110 0 109 0;
