#N canvas 527 185 755 573 10;
#X msg 279 261 gain \$1;
#X obj 278 240 * 100;
#X obj 278 219 pow 3;
#X obj 327 134 +;
#X obj 335 113 t b f;
#X obj 362 143 clip 0 1;
#X msg 290 164 freqMin \$1;
#X msg 362 164 freqMax \$1;
#X msg 283 28 invert \$1;
#X obj 364 252 + 1;
#X msg 364 274 compress \$1;
#X obj 363 228 * 4;
#X msg 509 461 spiGain \$1;
#X msg 395 399 rMin \$1;
#X msg 314 448 alpha_invert \$1;
#X msg 274 380 smooothExt \$1;
#X msg 275 314 smooothInt \$1;
#X msg 394 354 rect \$1;
#X obj 394 312 * 2;
#X obj 394 334 - 1;
#N canvas 267 352 384 520 \$1-settings 1;
#X obj 127 230 bng 8 250 50 0 empty empty empty 17 7 0 10 -262144 -1
-1;
#X msg 145 235 0.5;
#X obj 21 444 hsl 120 10 0 1 0 0 \$1-fadeTime \$1-fadeTime-rcv fadeTime
5 6 0 8 -262144 -1 -1 0 1;
#X obj 9 11 fpar \$1 invert;
#X obj 10 227 fpar \$1 rect;
#X obj 10 112 fpar \$1 gain;
#X obj 9 38 fpar \$1 fMin;
#X obj 9 61 fpar \$1 fBW;
#X obj 10 135 fpar \$1 compress;
#X obj 10 158 fpar \$1 rMin;
#X obj 10 181 fpar \$1 smoothInt;
#X obj 10 204 fpar \$1 smoothExt;
#X obj 10 250 fpar \$1 spiGain;
#X obj 11 302 fpar \$1 alphaInvert;
#X obj 149 165 apmasterfile \$1 ap/\$1.txt;
#X obj 296 144 bng 15 250 50 0 empty empty empty 17 7 0 10 -258113
-1 -1;
#X obj 149 145 bng 15 250 50 0 empty empty empty 17 7 0 10 -4034 -1
-1;
#X obj 147 11 64patterns \$1;
#X obj 149 123 loadbang;
#X obj 10 86 fpar \$1 fcompress;
#X obj 11 276 fpar \$1 spiCompress;
#X obj 127 253 bng 8 250 50 0 empty empty empty 17 7 0 10 -262144 -1
-1;
#X msg 156 258 0.5, f 4;
#X obj 12 332 fpar \$1 lowGainR;
#X obj 13 357 fpar \$1 lowGainA;
#X obj 13 384 fpar \$1 lowGainB;
#X connect 0 0 1 0;
#X connect 1 0 4 0;
#X connect 15 0 14 1;
#X connect 16 0 14 0;
#X connect 18 0 16 0;
#X connect 21 0 22 0;
#X connect 22 0 12 0;
#X restore 627 264 pd \$1-settings;
#X obj 283 6 r \$1-invert-snd;
#X obj 290 52 r \$1-fMin-snd;
#X obj 335 93 r \$1-fBW-snd;
#X obj 363 206 r \$1-compress-snd;
#X obj 278 196 r \$1-gain-snd;
#X obj 395 378 r \$1-rMin-snd;
#X obj 275 293 r \$1-smoothInt-snd;
#X obj 274 336 r \$1-smoothExt-snd;
#X obj 394 292 r \$1-rect-snd;
#X obj 509 374 r \$1-spiGain-snd;
#X obj 314 425 r \$1-alphaInvert-snd;
#X obj 499 239 apmaster \$1;
#X obj 505 97 64patterns \$1-fade;
#X obj 508 79 hsl 128 15 0 10000 0 0 \$1-fadeToScene-time \$1-fadeToScene-time
fadeTime:4.4_sec -2 -8 0 10 -262144 -1 -1 0 1;
#X obj 499 218 patternFade \$1;
#X obj 703 78 bng 15 250 50 0 empty empty settings -10 -7 0 8 -262144
-1 -1;
#X msg 627 221 vis 1;
#X obj 627 243 s pd-\$1-settings;
#X obj 67 502 list prepend f;
#X obj 67 524 list trim;
#X obj 67 546 outlet;
#X obj 600 476 r \$1-fcompress-snd;
#X msg 600 540 fcompress \$1;
#X obj 600 498 pow 2;
#X obj 539 287 r \$1-spiCompress-snd;
#X msg 542 352 spiCompress \$1;
#X floatatom 591 324 5 0 0 0 - - -, f 5;
#X obj 600 520 * 2;
#X obj 510 420 - 1;
#X obj 509 399 * 2;
#X obj 510 438 * 4;
#X obj 539 309 * 6;
#X obj 540 331 - 2;
#X obj 96 41 r \$1-lowGainR-snd;
#X obj 96 63 pow 2;
#X msg 96 85 lowGainR \$1;
#X obj 69 129 pow 2;
#X obj 47 199 pow 2;
#X obj 22 325 pow 2;
#X obj 69 107 r \$1-lowGainA-snd;
#X msg 69 151 lowGainA \$1;
#X obj 22 303 r \$1-hiGainA-snd;
#X msg 22 348 hiGainA \$1;
#X floatatom 354 499 5 0 0 0 - - -, f 5;
#X obj 290 74 + 0.0035;
#X obj 274 358 + 0.01;
#X obj 47 177 r \$1-lowGainB-snd;
#X msg 47 258 lowGainB \$1;
#X obj 47 221 * 5;
#X connect 0 0 39 0;
#X connect 1 0 0 0;
#X connect 2 0 1 0;
#X connect 3 0 5 0;
#X connect 4 0 3 0;
#X connect 4 1 3 1;
#X connect 5 0 7 0;
#X connect 6 0 39 0;
#X connect 7 0 39 0;
#X connect 8 0 39 0;
#X connect 9 0 10 0;
#X connect 10 0 39 0;
#X connect 11 0 9 0;
#X connect 12 0 39 0;
#X connect 13 0 39 0;
#X connect 14 0 39 0;
#X connect 15 0 39 0;
#X connect 16 0 39 0;
#X connect 17 0 39 0;
#X connect 18 0 19 0;
#X connect 19 0 17 0;
#X connect 21 0 8 0;
#X connect 22 0 65 0;
#X connect 23 0 4 0;
#X connect 24 0 11 0;
#X connect 25 0 2 0;
#X connect 26 0 13 0;
#X connect 27 0 16 0;
#X connect 28 0 64 0;
#X connect 28 0 66 0;
#X connect 29 0 18 0;
#X connect 30 0 50 0;
#X connect 31 0 14 0;
#X connect 36 0 37 0;
#X connect 37 0 38 0;
#X connect 39 0 40 0;
#X connect 40 0 41 0;
#X connect 42 0 44 0;
#X connect 43 0 39 0;
#X connect 44 0 48 0;
#X connect 45 0 52 0;
#X connect 46 0 39 0;
#X connect 48 0 43 0;
#X connect 49 0 51 0;
#X connect 50 0 49 0;
#X connect 51 0 12 0;
#X connect 52 0 53 0;
#X connect 53 0 46 0;
#X connect 53 0 47 0;
#X connect 54 0 55 0;
#X connect 55 0 56 0;
#X connect 56 0 39 0;
#X connect 57 0 61 0;
#X connect 58 0 69 0;
#X connect 59 0 63 0;
#X connect 60 0 57 0;
#X connect 61 0 39 0;
#X connect 62 0 59 0;
#X connect 63 0 39 0;
#X connect 65 0 3 0;
#X connect 65 0 6 0;
#X connect 66 0 15 0;
#X connect 67 0 58 0;
#X connect 68 0 39 0;
#X connect 69 0 68 0;
#X coords 0 -1 1 1 240 160 1 500 50;
