#N canvas 62 383 734 442 10;
#X obj 129 64 r spotshead;
#X obj 241 18 loadbang;
#X obj 241 40 f \$1;
#X obj 241 62 / 4;
#X obj 241 121 +;
#X obj 289 50 t b f;
#X floatatom 309 16 5 0 0 0 - - -, f 5;
#X floatatom 209 174 5 0 0 0 - - -, f 5;
#X obj 357 95 loadbang;
#X obj 357 117 f \$1;
#X obj 357 139 sel 1 2 3 4;
#X msg 455 175 1 0 0;
#X msg 319 173 1 1 0;
#X msg 410 174 0 1 0;
#X obj 159 293 unpack f f f;
#X obj 382 207 t a;
#X obj 216 17 bng 15 250 50 0 empty empty empty 17 7 0 10 -262144 -1
-1;
#X obj 14 84 r RYTHMEVENT;
#X obj 14 109 route \$1;
#X obj 14 131 route A B;
#X obj 365 298 unpack f f f;
#X obj 129 172 pofrotate;
#X floatatom 189 129 5 0 0 0 - - -, f 5;
#X obj 241 89 * 360;
#X obj 129 222 t a a a;
#X obj 618 91 vsl 15 128 0 1 0 0 empty empty empty 0 -9 0 10 -262144
-1 -1 0 1;
#X obj 658 123 vsl 15 128 0 1 0 0 empty empty empty 0 -9 0 10 -262144
-1 -1 0 1;
#X obj 277 184 sel 4;
#X msg 277 206 0;
#X obj 129 322 pofcolor 1 0 0 0;
#X obj 335 327 pofcolor 1 0 0 0;
#X msg 0 208 1 \, 0 100;
#X obj 0 230 line;
#X msg 66 208 1 \, 0 100;
#X obj 66 230 line;
#X obj 357 21 r spotsAngleOffset;
#X obj 129 266 poftranslate 0 -80;
#X obj 335 273 poftranslate 0 80;
#X obj 129 348 pofimage touch3.png 100 150;
#X obj 335 349 pofimage touch3.png 100 150;
#X obj 129 198 poftranslate 350 0;
#X msg 364 173 1 0 1;
#X connect 0 0 21 0;
#X connect 1 0 2 0;
#X connect 2 0 3 0;
#X connect 3 0 23 0;
#X connect 4 0 22 0;
#X connect 5 0 2 0;
#X connect 5 1 4 1;
#X connect 6 0 5 0;
#X connect 7 0 40 1;
#X connect 8 0 9 0;
#X connect 9 0 10 0;
#X connect 9 0 27 0;
#X connect 10 0 12 0;
#X connect 10 1 41 0;
#X connect 10 2 13 0;
#X connect 10 3 11 0;
#X connect 11 0 15 0;
#X connect 12 0 15 0;
#X connect 13 0 15 0;
#X connect 14 0 29 1;
#X connect 14 1 29 2;
#X connect 14 2 29 3;
#X connect 15 0 14 0;
#X connect 15 0 20 0;
#X connect 16 0 2 0;
#X connect 17 0 18 0;
#X connect 18 0 19 0;
#X connect 19 0 31 0;
#X connect 19 1 33 0;
#X connect 20 0 30 1;
#X connect 20 1 30 2;
#X connect 20 2 30 3;
#X connect 21 0 40 0;
#X connect 22 0 21 1;
#X connect 23 0 4 0;
#X connect 24 0 36 0;
#X connect 24 1 37 0;
#X connect 27 0 28 0;
#X connect 28 0 30 4;
#X connect 28 0 36 2;
#X connect 29 0 38 0;
#X connect 30 0 39 0;
#X connect 31 0 32 0;
#X connect 32 0 29 4;
#X connect 33 0 34 0;
#X connect 34 0 30 4;
#X connect 35 0 5 0;
#X connect 35 0 31 0;
#X connect 35 0 33 0;
#X connect 36 0 29 0;
#X connect 37 0 30 0;
#X connect 40 0 24 0;
#X connect 41 0 15 0;
