#N canvas 301 104 1063 765 10;
#X declare -stdlib zexy;
#X declare -lib pof -lib iemlib1 -stdpath iemlib;
#X declare -stdpath timbreID;
#X declare -lib creb;
#X declare -stdpath AutoPreset;
#X declare -stdpath nusmuk-utils;
#X declare -stdpath moonlib;
#X obj 50 21 pofhead;
#X obj 121 24 tgl 15 0 empty empty empty 17 7 0 10 -262144 -1 -1 0
1;
#X obj 50 51 pofvisible 1;
#X obj 335 75 pofwin;
#X msg 387 78 framerate \$1;
#X msg 387 38 30;
#X msg 421 38 50;
#X msg 453 38 60;
#X floatatom 387 60 5 0 0 0 - - -, f 5;
#X obj 767 155 motex/getenv HOME;
#X obj 767 98 bng 15 250 50 0 empty empty empty 17 7 0 10 -262144 -1
-1;
#X msg 767 176 symbol \$1/Datas/FTBOPEV/;
#X obj 767 198 s DATASDIR;
#X obj 767 75 loadbang;
#X obj 388 192 pack f s;
#X obj 453 172 r DATASDIR;
#X obj 388 237 readsf~ 2 1e+06;
#X msg 780 116 \; pd dsp 1;
#X msg 388 214 stop \, open \$2/Groupe\$1.wav \, start;
#X msg 367 152 1;
#X obj 235 22 loadbang;
#X obj 412 313 dac~;
#X msg 397 152 2;
#X msg 433 151 3;
#X obj 781 242 b;
#X obj 42 569 declare -stdlib zexy;
#X obj 781 263 t b b;
#X obj 781 285 timer;
#X floatatom 781 353 5 0 0 0 - - -, f 5;
#X obj 781 307 mavg 20;
#X msg 466 150 4;
#X obj 606 141 osc~;
#X obj 610 19 tgl 15 0 empty empty empty 17 7 0 10 -262144 -1 -1 0
1;
#X obj 610 89 + 10;
#X obj 610 42 metro 5;
#X obj 610 67 random 20000;
#X obj 610 109 f;
#X msg 654 16 5;
#X msg 694 13 500;
#X obj 731 13 declare -lib pof -lib iemlib1 -stdpath iemlib;
#X msg 333 206 stop;
#X obj 541 58 mtof;
#X floatatom 539 40 5 0 0 0 - - -, f 5;
#X obj 539 103 line~;
#X msg 539 81 \$1 50;
#X floatatom 669 41 5 0 0 0 - - -, f 5;
#X obj 781 328 maxlib/speedlim 100;
#X msg 781 374 1000 \$1;
#X obj 781 396 /;
#X floatatom 781 418 5 0 0 0 - - -, f 5;
#X msg 392 101 cursor 0;
#X msg 296 17 window 1024 1024 1 \, framerate 60 \, cursor 0;
#N canvas 149 120 996 659 drawSpectrum 0;
#X obj 89 82 t a a a;
#X floatatom 260 220 5 0 0 0 - - -, f 5;
#X obj 125 220 t a a;
#X floatatom 265 186 5 0 0 0 - - -, f 5;
#X floatatom 223 390 5 0 0 0 - - -, f 5;
#X floatatom 230 76 5 0 0 0 - - -, f 5;
#X msg 36 258 clear 0;
#X floatatom 241 286 5 0 0 0 - - -, f 5;
#X floatatom 170 378 5 0 0 0 - - -, f 5;
#X obj 32 121 loadbang;
#X obj 125 244 pofcolor 1 1 1 1;
#X obj 125 197 pofcolor 1 1 1 1;
#X obj 125 145 pofcolor 1 1 1 1;
#X obj 105 458 pofcolor 1 1 1 1;
#X obj 105 408 poftranslate 5000;
#X msg 338 310 clear 0 0 0 0;
#X obj 125 340 poffbo layer2 1024 1024;
#X obj 105 526 poffbo layer1 1024 1024;
#X obj 105 431 poffbo layer2 1024 1024;
#X msg 319 279 clear 1 0 0 1;
#X floatatom 309 227 5 0 0 0 - - -, f 5;
#X msg 261 121 clear \$1;
#X obj 273 95 tgl 15 0 empty empty empty 17 7 0 10 -262144 -1 -1 0
1;
#X msg 43 190 quality \$1;
#X obj 45 168 tgl 15 0 empty empty empty 17 7 0 10 -262144 -1 -1 0
1;
#X msg 47 146 0;
#X floatatom 228 51 5 0 0 0 - - -, f 5;
#X floatatom 194 47 5 0 0 0 - - -, f 5;
#X msg 486 519 resize 250 1;
#X msg 491 547 resize 512 1;
#X obj 338 347 pofimage SIGIMG 1024 4;
#X msg 485 488 resize 8 4;
#X obj 125 306 poftranslate 0 4;
#X msg 485 571 resize 1024 4;
#X msg 486 594 resize 1024 5, f 14;
#X msg 265 299 4;
#X msg 266 319 0;
#X obj 125 267 poftranslate 0 -510;
#X msg 318 194 -510;
#X msg 333 224 510;
#X msg 274 368 -4;
#N canvas 150 74 844 628 lowSpec 0;
#X obj 448 24 inlet~;
#X obj 32 26 inlet;
#X obj 615 139 block~ 64 1 0.25;
#X msg 597 213 overlap \$1;
#X msg 597 189 1;
#X msg 646 190 4;
#X msg 679 191 16;
#X msg 613 72 set 64 1 0.25;
#X msg 593 51 set 64 4 0.25;
#X obj 449 78 windowing/blackman~;
#X obj 449 123 rfft~;
#X obj 448 152 *~;
#X obj 479 152 *~;
#X obj 448 178 sqrt~;
#X obj 614 263 bang~;
#X obj 614 285 t b b;
#X obj 614 307 timer;
#X floatatom 614 351 5 0 0 0 - - -, f 5;
#X obj 669 26 loadbang;
#X obj 448 200 tabsend~ \$0-lowSpec0;
#X obj 440 264 table \$0-lowSpec0 1024;
#X obj 440 285 table \$0-lowSpec1 1024;
#X obj 440 307 table \$0-lowSpec2 1024;
#X obj 440 328 table \$0-lowSpec3 1024;
#X obj 92 69 t b b;
#X obj 124 91 t b b;
#X obj 124 113 timer;
#X obj 131 132 / 4;
#X obj 124 207 i;
#X obj 124 251 + 1;
#X obj 41 294 moses 4;
#X msg 170 112 0;
#X obj 66 207 del 10;
#X obj 124 229 t f f;
#X obj 66 176 t b f;
#X obj 189 338 * -1;
#X floatatom 72 99 5 0 0 0 - - -, f 5;
#X obj 124 157 t b f b;
#X msg 170 179 stop;
#X obj 189 360 + 3;
#X obj 189 426 outlet;
#X obj 274 80 list prepend \$0-lowSpec;
#X msg 274 103 set \$1\$2;
#X obj 614 329 maxlib/speedlim 100;
#X obj 212 289 list prepend \$0-lowSpec;
#X obj 189 263 t f f f;
#X msg 212 311 symbol \$1\$2;
#X obj 189 382 pack f f s;
#X msg 189 404 setcolors 0 \$1 1024 \$3 \$3 \$3 \$2 \$2 \$2;
#X msg 636 92 set 2048 64 0.25;
#X msg 668 112 set 2048 64 0.25;
#X msg 701 166 set 2048 128 0.25;
#X obj 172 507 t b b;
#X obj 172 529 timer;
#X floatatom 101 591 5 0 0 0 - - -, f 5;
#X obj 137 447 sel 4;
#X obj 336 547 print;
#X obj 337 524 spigot;
#X obj 373 500 tgl 15 0 empty empty empty 17 7 0 10 -262144 -1 -1 0
1;
#X obj 172 551 mavg 20;
#X obj 190 12 t b b;
#X obj 190 34 timer;
#X obj 190 56 mavg 20;
#X floatatom 227 79 5 0 0 0 - - -, f 5;
#X obj 190 82 / 4;
#X floatatom 209 110 5 0 0 0 - - -, f 5;
#X obj 85 126 4;
#X floatatom 172 595 5 0 0 0 - - -, f 5;
#X obj 172 573 maxlib/speedlim 100;
#X connect 0 0 9 0;
#X connect 1 0 24 0;
#X connect 4 0 3 0;
#X connect 5 0 3 0;
#X connect 6 0 3 0;
#X connect 7 0 2 0;
#X connect 8 0 2 0;
#X connect 9 0 10 0;
#X connect 10 0 11 0;
#X connect 10 0 11 1;
#X connect 10 1 12 0;
#X connect 10 1 12 1;
#X connect 11 0 13 0;
#X connect 12 0 13 0;
#X connect 13 0 19 0;
#X connect 14 0 15 0;
#X connect 15 0 16 0;
#X connect 15 1 16 1;
#X connect 16 0 43 0;
#X connect 18 0 50 0;
#X connect 24 1 25 0;
#X connect 24 1 60 0;
#X connect 25 0 66 0;
#X connect 25 1 26 1;
#X connect 25 1 31 0;
#X connect 26 0 27 0;
#X connect 28 0 33 0;
#X connect 29 0 30 0;
#X connect 29 0 55 0;
#X connect 30 0 34 0;
#X connect 31 0 28 1;
#X connect 32 0 28 0;
#X connect 33 0 29 0;
#X connect 33 1 41 0;
#X connect 33 1 45 0;
#X connect 34 0 32 0;
#X connect 34 1 28 1;
#X connect 35 0 39 0;
#X connect 36 0 66 1;
#X connect 37 0 28 0;
#X connect 37 1 32 1;
#X connect 37 2 38 0;
#X connect 38 0 32 0;
#X connect 39 0 47 0;
#X connect 41 0 42 0;
#X connect 42 0 19 0;
#X connect 43 0 17 0;
#X connect 44 0 46 0;
#X connect 45 0 35 0;
#X connect 45 1 44 0;
#X connect 46 0 47 2;
#X connect 47 0 48 0;
#X connect 48 0 40 0;
#X connect 49 0 2 0;
#X connect 50 0 2 0;
#X connect 51 0 2 0;
#X connect 52 0 53 0;
#X connect 52 1 53 1;
#X connect 53 0 59 0;
#X connect 53 0 57 0;
#X connect 55 0 52 0;
#X connect 57 0 56 0;
#X connect 58 0 57 1;
#X connect 59 0 68 0;
#X connect 60 0 61 0;
#X connect 60 1 61 1;
#X connect 61 0 62 0;
#X connect 62 0 64 0;
#X connect 66 0 37 0;
#X connect 68 0 67 0;
#X restore 732 420 pd lowSpec;
#X obj 804 374 lp10_butt~ 5000;
#N canvas 426 74 961 727 magSpectrum 0;
#X obj 433 406 list prepend 0;
#X obj 433 428 s \$0-t;
#X msg 726 51 power_spectrum \$1;
#X obj 726 33 tgl 15 0 empty empty empty 17 7 0 10 -262144 -1 -1 0
1;
#X obj 619 16 tgl 15 0 empty empty empty 17 7 0 10 -262144 -1 -1 0
1;
#X msg 619 34 normalize \$1;
#X msg 703 160 window 16384;
#X msg 703 112 window 2048;
#X obj 433 369 list split 1024;
#X obj 436 599 * 1024;
#X msg 645 10 0;
#X obj 679 11 loadbang;
#X obj 116 506 symbol \$0-t;
#X obj 254 127 t b b;
#X obj 382 554 sel 3;
#X msg 672 94 window 16;
#X obj 130 537 t b s;
#X obj 130 583 t f f;
#X obj 274 153 t b b;
#X obj 274 175 timer;
#X obj 274 197 / 4;
#X obj 350 220 i;
#X obj 350 287 + 1;
#X obj 352 309 moses 4;
#X msg 320 174 0;
#X obj 298 362 del 10;
#X obj 350 265 t f f;
#X obj 350 331 t b f;
#X obj 383 531 t f b f f;
#X obj 393 596 sel 0;
#X obj 130 626 pack f f s f;
#X obj 50 595 * -1;
#X obj 163 602 * 1024;
#X msg 130 559 0 \, 1 \, 2 \, 3;
#X msg 696 135 window 8192;
#X obj 433 285 *~ 0.02;
#X obj 433 333 magSpec~ 8192 4;
#X floatatom 218 150 5 0 0 0 - - -, f 5;
#X obj 274 219 t b f b;
#X msg 321 241 stop;
#X msg 111 655 setcolors 0 \$1 1024 \$3 \$3 \$3 \$2 \$2 \$2 \$2;
#X obj 50 617 + 3;
#X obj 643 51 hradio 15 1 0 5 empty empty empty 0 -8 0 10 -262144 -1
-1 1;
#X msg 643 71 window_function \$1;
#X obj 235 188 3;
#X obj 735 187 t a;
#X obj 614 201 list prepend 0;
#X obj 614 223 route 0 1;
#X obj 651 178 tgl 15 0 empty empty empty 17 7 0 10 -262144 -1 -1 0
1;
#X obj 214 65 inlet;
#X obj 432 44 inlet~;
#X obj 111 677 outlet;
#X obj 694 334 table \$0-t 4096;
#X obj 693 311 declare -stdpath timbreID;
#X connect 0 0 1 0;
#X connect 2 0 45 0;
#X connect 3 0 2 0;
#X connect 4 0 5 0;
#X connect 5 0 45 0;
#X connect 6 0 45 0;
#X connect 7 0 45 0;
#X connect 8 0 0 0;
#X connect 8 2 0 0;
#X connect 9 0 0 1;
#X connect 10 0 4 0;
#X connect 11 0 10 0;
#X connect 12 0 16 0;
#X connect 13 1 18 0;
#X connect 14 0 12 0;
#X connect 15 0 45 0;
#X connect 16 0 33 0;
#X connect 16 1 30 2;
#X connect 17 0 31 0;
#X connect 17 1 32 0;
#X connect 18 0 19 0;
#X connect 18 0 44 0;
#X connect 18 1 19 1;
#X connect 18 1 24 0;
#X connect 20 0 38 0;
#X connect 21 0 26 0;
#X connect 22 0 23 0;
#X connect 23 0 27 0;
#X connect 24 0 21 1;
#X connect 25 0 21 0;
#X connect 26 0 22 0;
#X connect 26 1 28 0;
#X connect 27 0 25 0;
#X connect 27 1 21 1;
#X connect 28 1 46 0;
#X connect 28 2 9 0;
#X connect 28 3 29 0;
#X connect 29 0 12 0;
#X connect 30 0 40 0;
#X connect 31 0 41 0;
#X connect 32 0 30 1;
#X connect 33 0 17 0;
#X connect 34 0 45 0;
#X connect 35 0 36 0;
#X connect 36 0 8 0;
#X connect 37 0 44 1;
#X connect 38 0 21 0;
#X connect 38 1 25 1;
#X connect 38 2 39 0;
#X connect 39 0 25 0;
#X connect 40 0 51 0;
#X connect 41 0 30 0;
#X connect 42 0 43 0;
#X connect 43 0 45 0;
#X connect 44 0 38 0;
#X connect 45 0 36 0;
#X connect 46 0 47 0;
#X connect 47 0 36 0;
#X connect 48 0 46 1;
#X connect 49 0 13 0;
#X connect 50 0 35 0;
#X restore 584 411 pd magSpectrum;
#X obj 504 288 route 0 1;
#X obj 444 237 pofbang 1;
#X obj 615 460 t a;
#X obj 804 396 *~ 0.1;
#X obj 504 266 list prepend 1;
#X obj 326 455 tgl 15 0 empty empty empty 17 7 0 10 -262144 -1 -1 0
1;
#X obj 326 475 * 4;
#X obj 89 38 inlet pofhead;
#X obj 703 333 inlet~;
#X obj 594 244 tgl 15 0 empty empty empty 17 7 0 10 -262144 -1 -1 0
1;
#X obj 123 115 poftranslate 0 10000;
#X obj 125 172 poffbo layer1 1024 1024 specTex;
#X msg 287 45 10000;
#X msg 287 67 0;
#X msg 488 623 resize 1024 1024;
#X connect 0 0 14 0;
#X connect 0 1 54 0;
#X connect 0 2 45 0;
#X connect 1 0 11 3;
#X connect 2 0 10 0;
#X connect 2 1 32 0;
#X connect 4 0 13 2;
#X connect 5 0 12 2;
#X connect 6 0 16 0;
#X connect 6 0 17 0;
#X connect 7 0 32 2;
#X connect 8 0 14 1;
#X connect 9 0 6 0;
#X connect 9 0 25 0;
#X connect 10 0 37 0;
#X connect 11 0 2 0;
#X connect 12 0 55 0;
#X connect 13 0 17 0;
#X connect 14 0 18 0;
#X connect 15 0 30 0;
#X connect 18 0 13 0;
#X connect 19 0 30 0;
#X connect 20 0 37 2;
#X connect 21 0 55 0;
#X connect 22 0 21 0;
#X connect 23 0 16 0;
#X connect 23 0 17 0;
#X connect 23 0 55 0;
#X connect 24 0 23 0;
#X connect 25 0 24 0;
#X connect 26 0 54 2;
#X connect 27 0 54 1;
#X connect 28 0 30 0;
#X connect 29 0 30 0;
#X connect 31 0 30 0;
#X connect 32 0 16 0;
#X connect 33 0 30 0;
#X connect 34 0 30 0;
#X connect 35 0 7 0;
#X connect 36 0 7 0;
#X connect 37 0 30 0;
#X connect 38 0 37 2;
#X connect 39 0 37 2;
#X connect 40 0 7 0;
#X connect 41 0 46 0;
#X connect 42 0 47 0;
#X connect 43 0 46 0;
#X connect 44 0 43 0;
#X connect 44 1 41 0;
#X connect 45 1 48 0;
#X connect 46 0 30 0;
#X connect 47 0 41 1;
#X connect 48 0 44 0;
#X connect 49 0 50 0;
#X connect 50 0 7 0;
#X connect 51 0 0 0;
#X connect 52 0 43 1;
#X connect 52 0 42 0;
#X connect 53 0 48 1;
#X connect 54 0 12 0;
#X connect 55 0 11 0;
#X connect 56 0 26 0;
#X connect 57 0 26 0;
#X connect 58 0 30 0;
#X restore 213 309 pd drawSpectrum;
#X obj 50 80 t a a;
#X obj 259 618 pofcolor 1 1 1 1;
#X obj 259 592 poftranslate 0 0;
#X msg 407 615 clear 0;
#X obj 407 594 loadbang;
#X floatatom 368 562 5 0 0 0 - - -, f 5;
#X obj 259 550 pofshader;
#X obj 420 572 tgl 15 0 empty empty empty 17 7 0 10 -262144 -1 -1 0
1;
#X msg 273 437 play \$1;
#X obj 274 412 tgl 15 0 empty empty empty 17 7 0 10 -262144 -1 -1 1
1;
#N canvas 122 472 730 304 drawSpectrum2 0;
#X obj 89 38 inlet pofhead;
#X obj 311 19 inlet~;
#X msg 185 107 clear 0 0 0 1;
#X obj 89 60 poftranslate 0 10000;
#X obj 369 150 s SPECINDEX;
#X obj 493 19 inlet on;
#X obj 310 95 *~ 0.05;
#N canvas 384 208 578 460 lowSpec 0;
#X obj 21 16 inlet~;
#X obj 228 134 block~ 64 1 0.25;
#X msg 226 67 set 64 1 0.25;
#X msg 206 46 set 64 4 0.25;
#X obj 20 114 rfft~;
#X obj 19 143 *~;
#X obj 50 143 *~;
#X obj 19 169 sqrt~;
#X obj 324 188 bang~;
#X obj 324 212 t b b;
#X obj 324 234 timer;
#X floatatom 324 278 5 0 0 0 - - -, f 5;
#X obj 282 21 loadbang;
#X obj 216 422 outlet;
#X obj 324 256 maxlib/speedlim 100;
#X msg 268 109 set 2048 64 0.25;
#X obj 227 160 table \$0-lowSpecII 1024;
#X obj 216 301 i;
#X obj 216 323 + 1;
#X obj 216 345 mod 1024;
#X obj 216 368 list prepend \$0-lowSpecII;
#X obj 19 218 tabsend~ \$0-lowSpecII;
#X msg 216 390 setcolors 0 \$2 1024 \$1 \$1 \$1;
#X obj 216 275 spigot 1;
#X obj 296 307 tgl 15 0 empty empty empty 17 7 0 10 -262144 -1 -1 0
1;
#X floatatom 446 49 5 1 128 0 - - -, f 5;
#X obj 19 196 min~ 1;
#X obj 36 61 *~ 4;
#X obj 36 39 hip~ 20000;
#X obj 439 423 outlet;
#X msg 404 110 set 2048 \$1 0.0625;
#X msg 254 88 set 2048 128 0.0625;
#X obj 493 19 inlet index;
#X obj 20 88 windowing/blackman~;
#X msg 449 178 0;
#X connect 0 0 28 0;
#X connect 0 0 33 0;
#X connect 2 0 1 0;
#X connect 3 0 1 0;
#X connect 4 0 5 0;
#X connect 4 0 5 1;
#X connect 4 1 6 0;
#X connect 4 1 6 1;
#X connect 5 0 7 0;
#X connect 6 0 7 0;
#X connect 7 0 26 0;
#X connect 8 0 9 0;
#X connect 9 0 10 0;
#X connect 9 1 10 1;
#X connect 10 0 14 0;
#X connect 12 0 31 0;
#X connect 12 0 34 0;
#X connect 14 0 11 0;
#X connect 15 0 1 0;
#X connect 17 0 18 0;
#X connect 18 0 19 0;
#X connect 19 0 17 1;
#X connect 19 0 20 0;
#X connect 19 0 29 0;
#X connect 20 0 22 0;
#X connect 22 0 13 0;
#X connect 23 0 17 0;
#X connect 24 0 23 1;
#X connect 25 0 30 0;
#X connect 26 0 21 0;
#X connect 27 0 33 0;
#X connect 28 0 27 0;
#X connect 30 0 1 0;
#X connect 31 0 1 0;
#X connect 32 0 20 0;
#X connect 33 0 4 0;
#X connect 34 0 1 0;
#X restore 505 133 pd lowSpec;
#X obj 506 103 *~ 0.05;
#N canvas 161 74 578 460 hiSpec 0;
#X obj 21 16 inlet~;
#X obj 228 134 block~ 64 1 0.25;
#X msg 226 67 set 64 1 0.25;
#X msg 206 46 set 64 4 0.25;
#X obj 20 88 windowing/blackman~;
#X obj 20 114 rfft~;
#X obj 19 143 *~;
#X obj 50 143 *~;
#X obj 19 169 sqrt~;
#X obj 324 188 bang~;
#X obj 324 212 t b b;
#X obj 324 234 timer;
#X floatatom 324 278 5 0 0 0 - - -, f 5;
#X obj 282 21 loadbang;
#X obj 216 422 outlet;
#X obj 324 256 maxlib/speedlim 100;
#X msg 268 109 set 2048 64 0.25;
#X obj 216 301 i;
#X obj 216 345 mod 1024;
#X msg 216 390 setcolors 0 \$2 1024 \$1 \$1 \$1;
#X obj 216 275 spigot 1;
#X obj 296 307 tgl 15 0 empty empty empty 17 7 0 10 -262144 -1 -1 0
1;
#X msg 404 110 set 2048 \$1 0.25;
#X floatatom 446 49 5 1 128 0 - - -, f 5;
#X obj 19 196 min~ 1;
#X obj 36 61 *~ 4;
#X obj 36 39 hip~ 20000;
#X msg 254 88 set 2048 32 0.25;
#X obj 439 423 outlet;
#X obj 493 19 inlet on;
#X obj 227 160 table \$0-hiSpecII 1024;
#X obj 216 368 list prepend \$0-hiSpecII;
#X obj 19 218 tabsend~ \$0-hiSpecII;
#X msg 420 149 set 2048 8 1;
#X msg 419 202 set 2048 64 0.125;
#X msg 419 178 set 2048 16 0.5;
#X obj 216 323 - 1;
#X connect 0 0 4 0;
#X connect 0 0 26 0;
#X connect 2 0 1 0;
#X connect 3 0 1 0;
#X connect 4 0 5 0;
#X connect 5 0 6 0;
#X connect 5 0 6 1;
#X connect 5 1 7 0;
#X connect 5 1 7 1;
#X connect 6 0 8 0;
#X connect 7 0 8 0;
#X connect 8 0 24 0;
#X connect 9 0 10 0;
#X connect 9 0 20 0;
#X connect 10 0 11 0;
#X connect 10 1 11 1;
#X connect 11 0 15 0;
#X connect 13 0 35 0;
#X connect 15 0 12 0;
#X connect 16 0 1 0;
#X connect 17 0 36 0;
#X connect 18 0 17 1;
#X connect 18 0 28 0;
#X connect 18 0 31 0;
#X connect 19 0 14 0;
#X connect 20 0 17 0;
#X connect 21 0 20 1;
#X connect 22 0 1 0;
#X connect 23 0 22 0;
#X connect 24 0 32 0;
#X connect 25 0 4 0;
#X connect 26 0 25 0;
#X connect 27 0 1 0;
#X connect 29 0 20 1;
#X connect 31 0 19 0;
#X connect 33 0 1 0;
#X connect 34 0 1 0;
#X connect 35 0 1 0;
#X connect 36 0 18 0;
#X restore 309 125 pd hiSpec;
#X obj 89 82 t a a;
#X obj 89 155 pofimage HISPECIMG 1024 1024 HISPECTEX;
#X obj 218 258 pofimage LOSPECIMG 1024 1024 LOSPECTEX;
#X obj 506 80 lp10_butt~ 1100;
#X obj 310 73 lp10_butt~ 9500;
#X connect 0 0 3 0;
#X connect 1 0 13 0;
#X connect 1 0 14 0;
#X connect 2 0 11 0;
#X connect 3 0 10 0;
#X connect 5 0 9 1;
#X connect 6 0 9 0;
#X connect 7 0 12 0;
#X connect 9 0 11 0;
#X connect 9 1 4 0;
#X connect 10 0 11 0;
#X connect 10 1 12 0;
#X connect 13 0 8 0;
#X connect 14 0 6 0;
#X restore 333 386 pd drawSpectrum2;
#X obj 23 334 pofcolor 1 1 1 1;
#X obj 23 308 poftranslate 0 0;
#X obj 23 356 pofplane 1024 1024;
#X obj 24 218 t a a;
#X obj 96 287 * -1;
#X obj 59 488 pofcolor 1 1 1 1;
#X obj 59 462 poftranslate 0 0;
#X obj 59 510 pofplane 1024 1024;
#X obj 153 386 * -1;
#X obj 153 408 + 1024;
#X obj 124 237 r SPECINDEX;
#X obj 125 259 spigot 1;
#X obj 456 354 tgl 15 0 empty empty empty 17 7 0 10 -262144 -1 -1 0
1;
#X msg 212 145 set HISPECTEX;
#X msg 210 173 set LOSPECTEX;
#X obj 606 163 *~;
#X obj 666 121 metro 500;
#X obj 666 143 del 100;
#X msg 668 166 0;
#X msg 641 145 1;
#X obj 681 98 tgl 15 0 empty empty empty 17 7 0 10 -262144 -1 -1 0
1;
#X obj 534 466 declare -lib creb;
#X floatatom 501 110 5 0 0 0 - - -, f 5;
#X obj 638 224 ead~ 50 50;
#X floatatom 163 320 5 0 0 0 - - -, f 5;
#X floatatom 76 253 5 0 0 0 - - -, f 5;
#X obj 669 282 sig~ 1;
#X obj 568 316 osc~ 70;
#X obj 24 150 pofvisible;
#X obj 24 196 poftexture HISPECTEX;
#X obj 259 498 poftexture HISPECTEX;
#X obj 152 103 tgl 15 0 empty empty empty 17 7 0 10 -262144 -1 -1 0
1;
#X obj 119 149 pofvisible 1;
#X obj 152 123 == 0;
#X floatatom 392 675 5 0 0 0 - - -, f 5;
#X msg 739 517 load texturedcercle;
#X obj 519 382 pofbang 1;
#X obj 603 404 t b b;
#X obj 603 426 timer;
#X floatatom 603 448 5 0 0 0 - - -, f 5;
#X obj 438 428 r SPECINDEX;
#X obj 677 609 hsl 128 15 0 1 0 0 empty empty empty -2 -8 0 10 -262144
-1 -1 0 1;
#X msg 680 644 f freqMax \$1;
#X msg 438 498 f specindex \$1;
#X obj 438 476 / 1024;
#X obj 827 616 hsl 128 15 0 1 0 0 empty empty empty -2 -8 0 10 -262144
-1 -1 0 1;
#X msg 830 651 f gain \$1;
#X obj 527 670 hsl 128 15 0 2 0 0 empty empty empty -2 -8 0 10 -262144
-1 -1 0 1;
#X msg 530 705 f compress \$1;
#X msg 245 46 background 0 0 0 1;
#X msg 716 704 f invert \$1;
#X obj 719 678 hsl 128 15 0 1 0 0 empty empty empty -2 -8 0 10 -262144
-1 -1 0 1;
#X obj 438 450 + 8;
#X msg 854 484 f smooothExt \$1;
#X obj 842 453 hsl 128 15 0 1 0 0 empty empty empty -2 -8 0 10 -262144
-1 -1 0 1;
#X obj 707 468 loadbang;
#X obj 707 490 t b b;
#X obj 259 641 pofplane 1300 1080;
#X obj 690 426 bng 15 250 50 0 empty empty empty 17 7 0 10 -262144
-1 -1;
#X obj 526 562 hsl 128 15 0 2 0 0 empty empty empty -2 -8 0 10 -262144
-1 -1 0 1;
#X msg 529 597 f fcompress \$1;
#X obj 907 651 hsl 128 15 0 1 0 0 empty empty empty -2 -8 0 10 -262144
-1 -1 0 1;
#X msg 910 686 f freqMin \$1;
#X floatatom 881 707 5 0 0 0 - - -, f 5;
#X floatatom 499 618 5 0 0 0 - - -, f 5;
#X obj 931 283 beatFollower~;
#X obj 945 325 bng 15 250 50 0 empty empty empty 17 7 0 10 -262144
-1 -1;
#X obj 973 325 unpack f;
#X floatatom 973 347 5 0 0 0 - - -, f 5;
#X obj 375 749 hsl 128 15 0 2 0 0 empty empty empty -2 -8 0 10 -262144
-1 -1 0 1;
#X msg 378 784 f spiGain \$1;
#X floatatom 411 709 5 0 0 0 - - -, f 5;
#X obj 572 735 hsl 128 15 0 2 0 0 empty empty empty -2 -8 0 10 -262144
-1 -1 0 1;
#X msg 575 770 f spiCompress \$1;
#X floatatom 726 739 5 0 0 0 - - -, f 5;
#X obj 41 590 declare -stdpath AutoPreset;
#X obj 89 637 apmaster ALL;
#X obj 48 686 apmasterfile ALL preset.txt;
#X obj 232 667 bng 15 250 50 0 empty empty empty 17 7 0 10 -258113
-1 -1;
#X obj 46 663 bng 15 250 50 0 empty empty empty 17 7 0 10 -4034 -1
-1;
#X obj 22 639 loadbang;
#X obj 40 551 declare -stdpath nusmuk-utils;
#X obj 37 715 specCtl SPEC;
#X obj 40 608 declare -stdpath moonlib;
#X msg 658 546 f gain 0 \, f rMax 1 \, f freqMax 0.8 \, f compress
1.7 \, f smooothExt 0.05 \, f smooothInt 0.05 \, f invert 1 \, f freqMin
0.003 \, f fcompress 0.4;
#X obj 412 291 *~ 0.02;
#X msg 315 471 set HISPECTEX;
#X msg 181 54 build;
#X connect 0 0 2 0;
#X connect 1 0 2 0;
#X connect 2 0 53 0;
#X connect 4 0 3 0;
#X connect 5 0 8 0;
#X connect 6 0 8 0;
#X connect 7 0 8 0;
#X connect 8 0 4 0;
#X connect 9 0 11 0;
#X connect 10 0 9 0;
#X connect 10 0 17 0;
#X connect 11 0 12 0;
#X connect 13 0 10 0;
#X connect 14 0 18 0;
#X connect 15 0 14 1;
#X connect 16 0 52 1;
#X connect 16 0 63 1;
#X connect 16 0 129 0;
#X connect 16 0 149 0;
#X connect 16 1 149 0;
#X connect 18 0 16 0;
#X connect 19 0 14 0;
#X connect 20 0 51 0;
#X connect 20 0 113 0;
#X connect 22 0 14 0;
#X connect 23 0 14 0;
#X connect 24 0 26 0;
#X connect 26 0 27 0;
#X connect 26 1 27 1;
#X connect 27 0 29 0;
#X connect 28 0 47 0;
#X connect 29 0 46 0;
#X connect 30 0 14 0;
#X connect 31 0 79 0;
#X connect 32 0 34 0;
#X connect 33 0 36 0;
#X connect 34 0 35 0;
#X connect 35 0 33 0;
#X connect 36 0 43 0;
#X connect 37 0 34 1;
#X connect 38 0 34 1;
#X connect 40 0 16 0;
#X connect 41 0 44 0;
#X connect 41 0 86 0;
#X connect 42 0 41 0;
#X connect 43 0 31 0;
#X connect 44 0 43 0;
#X connect 45 0 34 1;
#X connect 46 0 28 0;
#X connect 47 0 48 0;
#X connect 48 0 49 0;
#X connect 50 0 3 0;
#X connect 51 0 3 0;
#X connect 53 0 92 0;
#X connect 53 0 96 0;
#X connect 53 1 63 0;
#X connect 53 1 100 0;
#X connect 54 0 121 0;
#X connect 55 0 54 0;
#X connect 57 0 56 0;
#X connect 58 0 121 1;
#X connect 59 0 55 0;
#X connect 60 0 54 4;
#X connect 61 0 59 0;
#X connect 62 0 61 0;
#X connect 64 0 66 0;
#X connect 65 0 64 0;
#X connect 67 0 65 0;
#X connect 67 1 70 0;
#X connect 68 0 65 2;
#X connect 69 0 71 0;
#X connect 70 0 69 0;
#X connect 72 0 73 0;
#X connect 73 0 70 2;
#X connect 74 0 75 0;
#X connect 75 0 68 0;
#X connect 75 0 72 0;
#X connect 76 0 63 2;
#X connect 77 0 93 0;
#X connect 78 0 93 0;
#X connect 80 0 81 0;
#X connect 80 0 83 0;
#X connect 80 0 87 0;
#X connect 81 0 82 0;
#X connect 84 0 80 0;
#X connect 87 0 79 1;
#X connect 88 0 66 1;
#X connect 88 0 71 1;
#X connect 89 0 65 1;
#X connect 89 0 70 1;
#X connect 90 0 79 1;
#X connect 91 0 79 0;
#X connect 92 0 93 0;
#X connect 93 0 67 0;
#X connect 94 0 59 0;
#X connect 95 0 92 0;
#X connect 95 0 97 0;
#X connect 96 0 94 0;
#X connect 97 0 96 0;
#X connect 98 0 121 2;
#X connect 98 0 121 1;
#X connect 99 0 59 0;
#X connect 100 1 101 0;
#X connect 101 0 102 0;
#X connect 101 1 102 1;
#X connect 102 0 103 0;
#X connect 102 0 24 0;
#X connect 104 0 116 0;
#X connect 105 0 106 0;
#X connect 106 0 59 0;
#X connect 107 0 59 0;
#X connect 108 0 107 0;
#X connect 109 0 110 0;
#X connect 110 0 59 0;
#X connect 111 0 112 0;
#X connect 112 0 59 0;
#X connect 113 0 3 0;
#X connect 114 0 59 0;
#X connect 115 0 114 0;
#X connect 116 0 108 0;
#X connect 117 0 59 0;
#X connect 118 0 117 0;
#X connect 119 0 120 0;
#X connect 120 0 148 0;
#X connect 120 1 99 0;
#X connect 122 0 120 0;
#X connect 123 0 124 0;
#X connect 123 0 128 0;
#X connect 124 0 59 0;
#X connect 125 0 126 0;
#X connect 125 0 127 0;
#X connect 126 0 59 0;
#X connect 129 0 130 0;
#X connect 129 0 131 0;
#X connect 131 0 132 0;
#X connect 133 0 134 0;
#X connect 134 0 59 0;
#X connect 135 0 134 0;
#X connect 136 0 137 0;
#X connect 137 0 59 0;
#X connect 138 0 137 0;
#X connect 142 0 141 1;
#X connect 143 0 141 0;
#X connect 144 0 143 0;
#X connect 146 0 59 0;
#X connect 148 0 59 0;
#X connect 149 0 21 0;
#X connect 149 0 21 1;
#X connect 150 0 94 0;
#X connect 151 0 3 0;
