#N canvas 304 81 836 638 10;
#X obj 51 181 *~;
#X obj 52 113 line~;
#X obj 47 26 tgl 15 0 empty empty empty 17 7 0 10 -262144 -1 -1 0 1
;
#X obj 71 70 bng 15 250 50 0 empty empty empty 17 7 0 10 -262144 -1
-1;
#X floatatom 98 26 5 0 0 0 - - -, f 5;
#X obj 47 46 metro 600;
#X obj 77 135 *~ 100;
#X obj 77 155 +~ 80;
#X obj 76 176 osc~;
#X msg 125 148 0.25;
#X obj 160 112 noise~;
#X obj 160 134 *~ 30;
#X msg 52 93 1 \, 0 80;
#X obj 187 26 spigot;
#X msg 133 -1 600;
#X msg 98 0 550;
#X obj 220 4 tgl 15 0 empty empty empty 17 7 0 10 -262144 -1 -1 0 1
;
#X obj 187 46 random 400;
#X obj 187 66 + 200;
#X obj 248 100 adc~;
#X obj 366 79 soundfiler;
#X obj 380 12 table soundfile;
#X floatatom 366 99 8 0 0 0 - - -, f 8;
#X obj 297 582 dac~;
#X obj 402 270 bng 15 250 50 0 empty empty empty 17 7 0 10 -262144
-1 -1;
#X msg 483 172 stop;
#X obj 403 299 tabread4~ soundfile;
#X obj 346 137 f;
#X obj 340 112 bng 15 250 50 0 empty empty empty 17 7 0 10 -262144
-1 -1;
#X obj 346 157 t f f;
#X obj 345 202 pack f f;
#X obj 344 242 line~;
#X msg 345 222 0 \, \$1 \$2;
#X obj 375 180 / 44.1;
#X obj 421 153 * 44.1;
#X obj 426 122 hsl 128 15 0 2 0 0 empty empty empty -2 -8 0 10 -262144
-1 -1 0 1;
#X obj 415 261 del;
#X msg 409 219 \$2;
#X obj 514 238 / 8;
#X floatatom 513 264 7 0 0 0 - - -, f 7;
#X obj 503 332 metro 600;
#X obj 520 459 *~;
#X obj 521 375 line~;
#X obj 537 395 *~ 100;
#X obj 536 436 osc~;
#X msg 521 355 1 \, 0 80;
#X msg 483 268 0;
#X obj 537 415 +~ 200;
#X obj 328 30 loadbang;
#X obj 520 479 *~ 0.2;
#X obj 503 378 bng 15 250 50 0 empty empty empty 17 7 0 10 -262144
-1 -1;
#X obj 563 247 / 2;
#X floatatom 564 269 5 0 0 0 - - -, f 5;
#X floatatom 575 324 5 0 0 0 - - -, f 5;
#X obj 575 304 * 2;
#X msg 367 59 read -resize testMoon.wav soundfile;
#X msg 449 89 1;
#X msg 61 2 500;
#X obj 409 239 + 1;
#X msg 384 35 read -resize testBeasty.wav soundfile;
#X obj 403 319 hip~ 20;
#X obj 710 35 loadbang;
#X msg 709 56 \; pd dsp 1;
#X obj 298 519 *~;
#X obj 299 435 line~;
#X obj 314 496 osc~;
#X msg 299 415 1 \, 0 80;
#X obj 299 537 *~ 0.2;
#X obj 349 519 hsl 128 15 0 1 0 0 empty empty empty -2 -8 0 10 -262144
-1 -1 0 1;
#X obj 346 539 pow 2;
#X obj 315 474 +~ 400;
#X obj 315 455 *~ 400;
#X obj 251 128 *~;
#X obj 281 131 tgl 15 0 empty empty empty 17 7 0 10 -262144 -1 -1 0
1;
#X obj 338 374 beatFollower~;
#X obj 301 394 bng 15 250 50 0 empty empty empty 17 7 0 10 -262144
-1 -1;
#X floatatom 355 429 5 0 0 0 - - -, f 5;
#X obj 413 338 bng 15 250 50 0 empty empty empty 17 7 0 10 -262144
-1 -1;
#X obj 339 347 +~;
#X obj 90 491 *~ 0.2;
#X obj 140 473 hsl 128 15 0 1 0 0 empty empty empty -2 -8 0 10 -262144
-1 -1 0 1;
#X obj 137 493 pow 2;
#X obj 88 554 dac~;
#X connect 0 0 78 0;
#X connect 1 0 6 0;
#X connect 1 0 0 0;
#X connect 2 0 5 0;
#X connect 3 0 12 0;
#X connect 3 0 9 0;
#X connect 3 0 13 0;
#X connect 4 0 5 1;
#X connect 5 0 3 0;
#X connect 6 0 7 0;
#X connect 7 0 8 0;
#X connect 8 0 0 1;
#X connect 9 0 8 1;
#X connect 10 0 11 0;
#X connect 11 0 8 0;
#X connect 12 0 1 0;
#X connect 13 0 17 0;
#X connect 14 0 4 0;
#X connect 15 0 4 0;
#X connect 16 0 13 1;
#X connect 17 0 18 0;
#X connect 18 0 4 0;
#X connect 19 0 72 0;
#X connect 19 1 72 0;
#X connect 20 0 22 0;
#X connect 22 0 27 1;
#X connect 24 0 26 0;
#X connect 25 0 31 0;
#X connect 25 0 36 0;
#X connect 25 0 46 0;
#X connect 26 0 60 0;
#X connect 27 0 29 0;
#X connect 28 0 27 0;
#X connect 28 0 40 0;
#X connect 29 0 30 0;
#X connect 29 1 33 0;
#X connect 30 0 32 0;
#X connect 30 0 37 0;
#X connect 31 0 26 0;
#X connect 32 0 31 0;
#X connect 33 0 30 1;
#X connect 34 0 33 1;
#X connect 35 0 34 0;
#X connect 36 0 28 0;
#X connect 37 0 38 0;
#X connect 37 0 58 0;
#X connect 38 0 39 0;
#X connect 39 0 40 1;
#X connect 39 0 51 0;
#X connect 39 0 54 0;
#X connect 40 0 45 0;
#X connect 40 0 50 0;
#X connect 41 0 49 0;
#X connect 42 0 43 0;
#X connect 42 0 41 0;
#X connect 43 0 47 0;
#X connect 44 0 41 1;
#X connect 45 0 42 0;
#X connect 46 0 40 0;
#X connect 47 0 44 0;
#X connect 48 0 55 0;
#X connect 51 0 52 0;
#X connect 54 0 53 0;
#X connect 55 0 20 0;
#X connect 56 0 35 0;
#X connect 57 0 4 0;
#X connect 58 0 36 0;
#X connect 59 0 20 0;
#X connect 60 0 78 0;
#X connect 61 0 62 0;
#X connect 63 0 67 0;
#X connect 64 0 63 0;
#X connect 64 0 71 0;
#X connect 65 0 63 1;
#X connect 66 0 64 0;
#X connect 67 0 23 0;
#X connect 67 0 23 1;
#X connect 68 0 69 0;
#X connect 69 0 67 1;
#X connect 70 0 65 0;
#X connect 71 0 70 0;
#X connect 72 0 78 0;
#X connect 73 0 72 1;
#X connect 74 0 75 0;
#X connect 74 0 76 0;
#X connect 75 0 66 0;
#X connect 77 0 74 1;
#X connect 78 0 74 0;
#X connect 78 0 79 0;
#X connect 79 0 82 0;
#X connect 79 0 82 1;
#X connect 80 0 81 0;
#X connect 81 0 79 1;
