#N canvas 823 143 450 293 10;
#X obj 66 119 env~ 2048;
#X obj 68 29 inlet~;
#N canvas 110 82 1166 693 process 1;
#X obj 191 151 i;
#X obj 191 171 + 1;
#X obj 191 191 mod 256;
#X msg 312 250 1000 \$1;
#X obj 312 270 /;
#X obj 312 228 mtof;
#X floatatom 377 289 5 0 0 0 - - -, f 5;
#X obj 386 382 tgl 15 0 empty empty empty 17 7 0 10 -262144 -1 -1 1
1;
#X floatatom 234 114 5 0 0 0 - - -, f 5;
#X floatatom 247 236 5 0 0 0 - - -, f 5;
#X obj 300 133 moses -80;
#X obj 312 290 moses 200;
#X floatatom 412 165 5 0 0 0 - - -, f 5;
#X msg 412 207 1000 \$1;
#X obj 412 229 /;
#X obj 412 187 mtof;
#X floatatom 412 252 5 0 0 0 - - -, f 5;
#X obj 42 267 tabwrite \$0-t2;
#X obj 282 14 inlet;
#X obj 42 228 snapshot~;
#X obj 312 182 fmod 12;
#X obj 312 327 f;
#X msg 312 347 0 \, 1 \$1;
#X obj 312 370 line~;
#X obj 313 414 cos~;
#X obj 296 513 *~;
#X obj 313 434 +~ 1;
#X obj 205 370 max~ 0;
#X floatatom 273 561 5 0 0 0 - - -, f 5;
#X obj 282 58 hip~ 2;
#X obj 229 433 cos~;
#X obj 229 453 +~ 1;
#X obj 204 518 *~;
#X floatatom 202 561 5 0 0 0 - - -, f 5;
#X obj 240 588 -;
#X floatatom 201 623 5 0 0 0 - - -, f 5;
#X obj 434 399 * 1;
#X obj 312 162 + 36;
#X obj 312 202 - 36;
#X obj 434 374 t b f;
#X obj 229 411 -~ 0.02;
#X obj 313 393 +~ 0.02;
#X floatatom 464 400 5 0 0 0 - - -, f 5;
#X msg 381 354 1;
#X obj 101 38 table \$0-t 256;
#X obj 102 55 table \$0-t2 256;
#X obj 138 267 tabwrite \$0-t;
#X obj 164 134 t b b;
#X obj 138 220 snapshot~;
#X obj 164 114 metro 20;
#X obj 164 94 tgl 15 0 empty empty empty 17 7 0 10 -262144 -1 -1 1
1;
#X obj 240 633 clip -1 1;
#X obj 241 673 + 1;
#X obj 823 143 block~ 64 1;
#X msg 823 81 1 \$1;
#X obj 823 101 /;
#X obj 910 103 /;
#X msg 910 83 22000 \$1;
#X floatatom 909 122 8 0 0 0 - - -, f 8;
#X obj 823 29 loadbang;
#X obj 390 647 outlet;
#X obj 381 335 loadbang;
#X obj 390 419 metro 600;
#X obj 390 511 f 600;
#X obj 517 24 inlet reset;
#X obj 281 78 max~ 0;
#X obj 398 -1 inlet;
#X obj 914 155 / 1024;
#X floatatom 914 175 5 0 0 0 - - -, f 5;
#X msg 823 51 128;
#X obj 765 99 bang~;
#X obj 765 119 t b b;
#X obj 765 139 timer;
#X floatatom 765 159 5 0 0 0 - - -, f 5;
#X obj 356 441 bng 15 250 50 0 empty empty empty 17 7 0 10 -262144
-1 -1;
#X obj 398 20 lop~ 20;
#X obj 398 80 max~ 0;
#X obj 73 428 sig~ 1;
#X obj 398 60 hip~ 0.1;
#X obj 398 40 *~ 1;
#X obj 314 459 *~ 0.5;
#X obj 303 484 *~;
#X obj 228 475 *~ 0.5;
#X obj 217 500 *~;
#X obj 640 87 cos~;
#X obj 640 107 +~ 1;
#X obj 641 132 *~ 0.5;
#X obj 639 53 sig~ 0;
#X obj 638 159 *~;
#X obj 604 199 snapshot~;
#X floatatom 604 219 5 0 0 0 - - -, f 5;
#X obj 634 10 hsl 128 15 0 1 0 0 empty empty empty -2 -8 0 10 -262144
-1 -1 0 1;
#X obj 648 228 hsl 128 15 0 1 0 0 empty empty empty -2 -8 0 10 -262144
-1 -1 12700 1;
#X obj 384 584 del;
#X obj 442 610 bng 15 250 50 0 empty empty empty 17 7 0 10 -262144
-1 -1;
#X floatatom 456 509 5 0 0 0 - - -, f 5;
#X obj 480 286 bng 15 250 50 0 empty empty empty 17 7 0 10 -262144
-1 -1;
#X obj 625 306 t b b;
#X obj 625 326 timer;
#X floatatom 625 346 5 0 0 0 - - -, f 5;
#X obj 625 283 bng 15 250 50 0 empty empty empty 17 7 0 10 -262144
-1 -1;
#X obj 625 366 moses 300;
#X obj 241 653 * 0.1;
#X obj 150 622 dbtorms;
#X floatatom 150 642 8 0 0 0 - - -, f 8;
#X obj 147 556 dbtorms;
#X floatatom 79 628 8 0 0 0 - - -, f 8;
#X obj 311 560 dbtorms;
#X floatatom 330 605 8 0 0 0 - - -, f 8;
#X obj 240 610 * 1;
#X obj 202 541 env~ 1024;
#X obj 295 538 env~ 1024;
#X obj 298 112 sigmund~ -npts 4096 -hop 256 pitch notes;
#X obj 540 136 print;
#X obj 384 564 - 160;
#X obj 480 309 del 160;
#X floatatom 291 663 5 0 0 0 - - -, f 5;
#X obj 390 533 t f f;
#X obj 389 617 f;
#X obj 282 35 lop~ 40;
#X msg 823 121 set 16 1 \$1;
#X obj 690 406 t f b;
#X obj 690 428 +;
#X obj 690 450 f;
#X obj 742 426 +;
#X obj 742 448 f;
#X msg 742 406 1;
#X obj 690 472 /;
#X msg 784 393 0;
#X floatatom 642 538 5 0 0 0 - - -, f 5;
#X floatatom 789 451 5 0 0 0 - - -, f 5;
#X obj 690 366 moses 800;
#X obj 742 472 > 2;
#X obj 690 494 spigot;
#X msg 702 522 1000 \$1;
#X obj 702 542 /;
#X floatatom 745 554 5 0 0 0 - - -, f 5;
#X obj 794 502 bng 15 250 50 0 empty empty empty 17 7 0 10 -262144
-1 -1;
#X floatatom 702 586 5 0 0 0 - - -, f 5;
#X obj 702 564 ftom;
#X obj 642 600 - 6;
#X floatatom 565 651 5 0 0 0 - - -, f 5;
#X obj 362 182 * -1;
#X connect 0 0 1 0;
#X connect 1 0 2 0;
#X connect 2 0 0 1;
#X connect 2 0 17 1;
#X connect 2 0 46 1;
#X connect 3 0 4 0;
#X connect 4 0 11 0;
#X connect 5 0 3 0;
#X connect 7 0 62 0;
#X connect 10 1 12 0;
#X connect 10 1 37 0;
#X connect 11 1 6 0;
#X connect 11 1 21 1;
#X connect 11 1 36 0;
#X connect 11 1 63 1;
#X connect 12 0 15 0;
#X connect 13 0 14 0;
#X connect 14 0 16 0;
#X connect 15 0 13 0;
#X connect 18 0 119 0;
#X connect 19 0 17 0;
#X connect 20 0 38 0;
#X connect 21 0 22 0;
#X connect 22 0 23 0;
#X connect 23 0 40 0;
#X connect 23 0 41 0;
#X connect 24 0 26 0;
#X connect 25 0 19 0;
#X connect 25 0 111 0;
#X connect 26 0 80 0;
#X connect 27 0 32 0;
#X connect 27 0 25 0;
#X connect 29 0 65 0;
#X connect 30 0 31 0;
#X connect 31 0 82 0;
#X connect 32 0 110 0;
#X connect 34 0 35 0;
#X connect 34 0 103 0;
#X connect 34 0 109 0;
#X connect 36 0 42 0;
#X connect 36 0 62 1;
#X connect 37 0 20 0;
#X connect 38 0 9 0;
#X connect 38 0 5 0;
#X connect 39 0 36 0;
#X connect 39 1 36 1;
#X connect 40 0 30 0;
#X connect 41 0 24 0;
#X connect 43 0 7 0;
#X connect 47 0 48 0;
#X connect 47 0 19 0;
#X connect 47 1 0 0;
#X connect 48 0 46 0;
#X connect 49 0 47 0;
#X connect 49 0 89 0;
#X connect 50 0 49 0;
#X connect 51 0 102 0;
#X connect 52 0 39 0;
#X connect 52 0 116 0;
#X connect 54 0 55 0;
#X connect 55 0 120 0;
#X connect 56 0 58 0;
#X connect 57 0 56 0;
#X connect 58 0 67 0;
#X connect 59 0 69 0;
#X connect 61 0 43 0;
#X connect 62 0 21 0;
#X connect 62 0 63 0;
#X connect 62 0 74 0;
#X connect 63 0 95 0;
#X connect 63 0 114 0;
#X connect 63 0 117 0;
#X connect 64 0 96 0;
#X connect 65 0 112 0;
#X connect 65 0 48 0;
#X connect 66 0 75 0;
#X connect 67 0 68 0;
#X connect 69 0 54 0;
#X connect 69 0 57 0;
#X connect 70 0 71 0;
#X connect 71 0 72 0;
#X connect 71 1 72 1;
#X connect 72 0 73 0;
#X connect 75 0 79 0;
#X connect 76 0 27 0;
#X connect 78 0 76 0;
#X connect 79 0 78 0;
#X connect 80 0 81 0;
#X connect 80 0 81 1;
#X connect 81 0 25 1;
#X connect 82 0 83 0;
#X connect 82 0 83 1;
#X connect 83 0 32 1;
#X connect 84 0 85 0;
#X connect 85 0 86 0;
#X connect 86 0 88 0;
#X connect 86 0 88 1;
#X connect 87 0 84 0;
#X connect 88 0 89 0;
#X connect 89 0 90 0;
#X connect 89 0 92 0;
#X connect 91 0 87 0;
#X connect 93 0 94 0;
#X connect 93 0 118 0;
#X connect 96 0 115 0;
#X connect 96 0 100 0;
#X connect 97 0 98 0;
#X connect 97 1 98 1;
#X connect 98 0 99 0;
#X connect 99 0 101 0;
#X connect 100 0 97 0;
#X connect 101 1 131 0;
#X connect 102 0 52 0;
#X connect 103 0 104 0;
#X connect 105 0 106 0;
#X connect 105 0 34 0;
#X connect 107 0 108 0;
#X connect 107 0 34 1;
#X connect 109 0 51 0;
#X connect 110 0 33 0;
#X connect 110 0 105 0;
#X connect 111 0 28 0;
#X connect 111 0 107 0;
#X connect 112 0 8 0;
#X connect 112 1 10 0;
#X connect 114 0 93 0;
#X connect 115 0 43 0;
#X connect 117 1 118 1;
#X connect 118 0 60 0;
#X connect 119 0 29 0;
#X connect 120 0 53 0;
#X connect 121 0 122 0;
#X connect 121 1 126 0;
#X connect 122 0 123 0;
#X connect 123 0 122 1;
#X connect 123 0 127 0;
#X connect 124 0 125 0;
#X connect 125 0 124 1;
#X connect 125 0 127 1;
#X connect 125 0 130 0;
#X connect 125 0 132 0;
#X connect 126 0 124 0;
#X connect 127 0 133 0;
#X connect 128 0 124 1;
#X connect 128 0 122 1;
#X connect 131 0 121 0;
#X connect 131 1 128 0;
#X connect 132 0 133 1;
#X connect 133 0 129 0;
#X connect 133 0 11 0;
#X connect 133 0 134 0;
#X connect 134 0 135 0;
#X connect 135 0 136 0;
#X connect 135 0 139 0;
#X connect 137 0 135 0;
#X connect 139 0 138 0;
#X connect 139 0 140 0;
#X connect 140 0 142 0;
#X connect 142 0 38 1;
#X connect 142 0 37 1;
#X restore 117 186 pd process;
#X obj 66 140 / 10;
#X obj 117 206 outlet;
#X obj 208 56 inlet reset;
#X obj 141 122 env~ 2048;
#X obj 141 143 / 10;
#X obj 141 83 iemlib/lp4_butt~ 200;
#X obj 142 101 lop~ 50;
#X obj 70 94 lop~ 200;
#X connect 0 0 3 0;
#X connect 1 0 8 0;
#X connect 1 0 10 0;
#X connect 2 0 4 0;
#X connect 3 0 2 0;
#X connect 5 0 2 2;
#X connect 6 0 7 0;
#X connect 7 0 2 1;
#X connect 8 0 9 0;
#X connect 9 0 6 0;
#X connect 10 0 0 0;
