#N canvas 146 91 721 541 10;
#X declare -stdpath Fraise;
#X declare -stdpath moonlib;
#X obj 22 237 analog/parse;
#X obj 22 262 route 0 1 2 3;
#X floatatom 22 371 8 0 0 0 - - -, f 8;
#X floatatom 40 345 8 0 0 0 - - -, f 8;
#X floatatom 59 319 8 0 0 0 - - -, f 8;
#X floatatom 78 293 8 0 0 0 - - -, f 8;
#X obj 21 38 pied/pied 0 41424;
#X obj 21 7 declare -stdpath Fraise;
#X obj 494 168 bng 15 250 50 0 empty empty empty 17 7 0 10 -262144
-1 -1;
#X obj 494 112 tgl 15 0 empty empty empty 17 7 0 10 -262144 -1 -1 0
1;
#X obj 500 311 f 1000;
#X floatatom 577 264 8 0 0 0 - - -, f 8;
#X floatatom 573 88 5 0 0 0 - - -, f 5;
#X obj 571 240 * 100;
#X floatatom 571 211 5 0 0 0 - - -, f 5;
#X obj 577 290 hsl 128 15 300 6000 1 0 empty empty empty -2 -8 0 10
-262144 -1 -1 11700 1;
#X msg 268 359 c 30 c \$1;
#X msg 320 311 1;
#X obj 269 290 t b b;
#X msg 269 334 0;
#X obj 260 251 bng 30 250 50 0 empty empty empty 17 7 0 10 -4034 -1
-1;
#X msg 355 310 100;
#X obj 180 4 declare -stdpath moonlib;
#X msg 438 309 1;
#X obj 387 288 t b b;
#X msg 387 332 0;
#X obj 388 256 bng 30 250 50 0 empty empty empty 17 7 0 10 -4034 -1
-1;
#X obj 371 388 t a;
#X obj 269 311 del 100;
#X msg 386 357 c 31 c \$1;
#X obj 387 310 del 150;
#X obj 19 127 fruit/fruit 1 phonel1 20 phonelec;
#N canvas 7 75 608 468 decode 0;
#X obj 19 51 route 65;
#X obj 19 73 unpack f f f f f, f 94;
#X obj 19 97 t f f f f, f 17;
#X obj 19 119 & 1;
#X obj 19 141 != 0;
#X obj 52 141 != 0;
#X obj 85 141 != 0;
#X obj 118 141 != 0;
#X obj 52 119 & 2;
#X obj 85 119 & 4;
#X obj 118 119 & 8;
#X obj 19 205 tgl 15 0 empty empty empty 17 7 0 10 -262144 -1 -1 0
1;
#X obj 52 205 tgl 15 0 empty empty empty 17 7 0 10 -262144 -1 -1 0
1;
#X obj 85 205 tgl 15 0 empty empty empty 17 7 0 10 -262144 -1 -1 0
1;
#X obj 118 205 tgl 15 0 empty empty empty 17 7 0 10 -262144 -1 -1 0
1;
#X obj 159 98 t f f f f, f 17;
#X obj 159 120 & 1;
#X obj 159 142 != 0;
#X obj 192 142 != 0;
#X obj 225 142 != 0;
#X obj 258 142 != 0;
#X obj 192 120 & 2;
#X obj 225 120 & 4;
#X obj 258 120 & 8;
#X obj 159 206 tgl 15 0 empty empty empty 17 7 0 10 -262144 -1 -1 0
1;
#X obj 192 206 tgl 15 0 empty empty empty 17 7 0 10 -262144 -1 -1 0
1;
#X obj 225 206 tgl 15 0 empty empty empty 17 7 0 10 -262144 -1 -1 0
1;
#X obj 258 206 tgl 15 0 empty empty empty 17 7 0 10 -262144 -1 -1 0
1;
#X obj 299 99 t f f f f, f 17;
#X obj 299 121 & 1;
#X obj 299 143 != 0;
#X obj 332 143 != 0;
#X obj 365 143 != 0;
#X obj 398 143 != 0;
#X obj 332 121 & 2;
#X obj 365 121 & 4;
#X obj 398 121 & 8;
#X obj 299 207 tgl 15 0 empty empty empty 17 7 0 10 -262144 -1 -1 0
1;
#X obj 332 207 tgl 15 0 empty empty empty 17 7 0 10 -262144 -1 -1 0
1;
#X obj 365 207 tgl 15 0 empty empty empty 17 7 0 10 -262144 -1 -1 0
1;
#X obj 398 207 tgl 15 0 empty empty empty 17 7 0 10 -262144 -1 -1 0
1;
#X obj 439 98 t f f f f, f 17;
#X obj 439 120 & 1;
#X obj 439 142 != 0;
#X obj 472 142 != 0;
#X obj 505 142 != 0;
#X obj 538 142 != 0;
#X obj 472 120 & 2;
#X obj 505 120 & 4;
#X obj 538 120 & 8;
#X obj 439 206 tgl 15 0 empty empty empty 17 7 0 10 -262144 -1 -1 0
1;
#X obj 472 206 tgl 15 0 empty empty empty 17 7 0 10 -262144 -1 -1 0
1;
#X obj 505 206 tgl 15 0 empty empty empty 17 7 0 10 -262144 -1 -1 0
1;
#X obj 538 206 tgl 15 0 empty empty empty 17 7 0 10 -262144 -1 -1 0
1;
#X obj 219 299 t a;
#X msg 19 227 11 \$1;
#X msg 53 227 9 \$1;
#X msg 85 225 6 \$1;
#X msg 118 226 3 \$1;
#X msg 158 225 0 \$1;
#X msg 192 225 8 \$1;
#X msg 225 225 5 \$1;
#X msg 258 225 2 \$1;
#X msg 332 228 7 \$1;
#X msg 365 229 4 \$1;
#X msg 400 230 10 \$1;
#X msg 439 226 13 \$1;
#X msg 505 228 1 \$1;
#X msg 538 228 12 \$1;
#X obj 19 163 change;
#X obj 52 182 change;
#X obj 85 162 change;
#X obj 118 181 change;
#X obj 159 164 change;
#X obj 192 183 change;
#X obj 225 163 change;
#X obj 258 182 change;
#X obj 299 165 change;
#X obj 332 184 change;
#X obj 365 164 change;
#X obj 398 183 change;
#X obj 439 166 change;
#X obj 472 185 change;
#X obj 505 165 change;
#X obj 538 184 change;
#X obj 19 24 inlet;
#X obj 219 321 outlet;
#X msg 478 228 14 \$1;
#X msg 292 229 15 \$1;
#X connect 0 0 1 0;
#X connect 1 0 2 0;
#X connect 1 1 15 0;
#X connect 1 2 28 0;
#X connect 1 3 41 0;
#X connect 2 0 3 0;
#X connect 2 1 8 0;
#X connect 2 2 9 0;
#X connect 2 3 10 0;
#X connect 3 0 4 0;
#X connect 4 0 69 0;
#X connect 5 0 70 0;
#X connect 6 0 71 0;
#X connect 7 0 72 0;
#X connect 8 0 5 0;
#X connect 9 0 6 0;
#X connect 10 0 7 0;
#X connect 11 0 55 0;
#X connect 12 0 56 0;
#X connect 13 0 57 0;
#X connect 14 0 58 0;
#X connect 15 0 16 0;
#X connect 15 1 21 0;
#X connect 15 2 22 0;
#X connect 15 3 23 0;
#X connect 16 0 17 0;
#X connect 17 0 73 0;
#X connect 18 0 74 0;
#X connect 19 0 75 0;
#X connect 20 0 76 0;
#X connect 21 0 18 0;
#X connect 22 0 19 0;
#X connect 23 0 20 0;
#X connect 24 0 59 0;
#X connect 25 0 60 0;
#X connect 26 0 61 0;
#X connect 27 0 62 0;
#X connect 28 0 29 0;
#X connect 28 1 34 0;
#X connect 28 2 35 0;
#X connect 28 3 36 0;
#X connect 29 0 30 0;
#X connect 30 0 77 0;
#X connect 31 0 78 0;
#X connect 32 0 79 0;
#X connect 33 0 80 0;
#X connect 34 0 31 0;
#X connect 35 0 32 0;
#X connect 36 0 33 0;
#X connect 37 0 88 0;
#X connect 38 0 63 0;
#X connect 39 0 64 0;
#X connect 40 0 65 0;
#X connect 41 0 42 0;
#X connect 41 1 47 0;
#X connect 41 2 48 0;
#X connect 41 3 49 0;
#X connect 42 0 43 0;
#X connect 43 0 81 0;
#X connect 44 0 82 0;
#X connect 45 0 83 0;
#X connect 46 0 84 0;
#X connect 47 0 44 0;
#X connect 48 0 45 0;
#X connect 49 0 46 0;
#X connect 50 0 66 0;
#X connect 51 0 87 0;
#X connect 52 0 67 0;
#X connect 53 0 68 0;
#X connect 54 0 86 0;
#X connect 55 0 54 0;
#X connect 56 0 54 0;
#X connect 57 0 54 0;
#X connect 58 0 54 0;
#X connect 59 0 54 0;
#X connect 60 0 54 0;
#X connect 61 0 54 0;
#X connect 62 0 54 0;
#X connect 63 0 54 0;
#X connect 64 0 54 0;
#X connect 65 0 54 0;
#X connect 66 0 54 0;
#X connect 67 0 54 0;
#X connect 68 0 54 0;
#X connect 69 0 11 0;
#X connect 70 0 12 0;
#X connect 71 0 13 0;
#X connect 72 0 14 0;
#X connect 73 0 24 0;
#X connect 74 0 25 0;
#X connect 75 0 26 0;
#X connect 76 0 27 0;
#X connect 77 0 37 0;
#X connect 78 0 38 0;
#X connect 79 0 39 0;
#X connect 80 0 40 0;
#X connect 81 0 50 0;
#X connect 82 0 51 0;
#X connect 83 0 52 0;
#X connect 84 0 53 0;
#X connect 85 0 0 0;
#X connect 87 0 54 0;
#X connect 88 0 54 0;
#X restore 248 143 pd decode;
#X obj 248 165 unpack f f;
#X floatatom 248 187 5 0 0 0 - - -, f 5;
#X floatatom 305 187 5 0 0 0 - - -, f 5;
#X obj 248 121 fruit/receive phonel1;
#X obj 148 268 route s;
#X obj 148 290 route 0;
#X obj 148 313 tgl 15 0 empty empty empty 17 7 0 10 -262144 -1 -1 0
1;
#X obj 403 463 fruit/send2 phonel1;
#X obj 392 172 print;
#X obj 22 207 fruit/receive phonel1;
#X obj 493 142 metro 400;
#X msg 499 346 c 10 i \$1 c 0;
#X connect 0 0 1 0;
#X connect 0 1 37 0;
#X connect 0 1 32 0;
#X connect 1 0 2 0;
#X connect 1 1 3 0;
#X connect 1 2 4 0;
#X connect 1 3 5 0;
#X connect 8 0 10 0;
#X connect 8 0 20 0;
#X connect 9 0 43 0;
#X connect 10 0 44 0;
#X connect 11 0 10 1;
#X connect 12 0 43 1;
#X connect 13 0 11 0;
#X connect 14 0 13 0;
#X connect 15 0 11 0;
#X connect 16 0 27 0;
#X connect 17 0 16 0;
#X connect 18 0 28 0;
#X connect 18 1 17 0;
#X connect 19 0 16 0;
#X connect 20 0 18 0;
#X connect 21 0 28 1;
#X connect 23 0 29 0;
#X connect 24 0 30 0;
#X connect 24 1 23 0;
#X connect 25 0 29 0;
#X connect 26 0 24 0;
#X connect 27 0 40 0;
#X connect 28 0 19 0;
#X connect 29 0 27 0;
#X connect 30 0 25 0;
#X connect 32 0 33 0;
#X connect 33 0 34 0;
#X connect 33 1 35 0;
#X connect 36 0 32 0;
#X connect 37 0 38 0;
#X connect 38 0 39 0;
#X connect 42 0 0 0;
#X connect 43 0 8 0;
#X connect 44 0 40 0;
