#N canvas 146 108 1041 657 10;
#X declare -stdpath Fraise;
#X obj 304 54 declare -stdpath Fraise;
#X obj 34 84 fruit/fruit 1 phone1 10 phone;
#X obj 33 8 pied/pied 0 61616;
#X obj 124 375 fruit/send2 phone1;
#X msg 124 348 c 10 c \$1;
#X obj 59 323 tgl 15 0 empty empty empty 17 7 0 10 -262144 -1 -1 1
1;
#X obj 318 252 fruit/receive phone1;
#X obj 318 273 route 65;
#X obj 318 295 unpack f f f f f, f 94;
#X obj 318 319 t f f f f, f 17;
#X obj 318 341 & 1;
#X obj 318 363 != 0;
#X obj 351 363 != 0;
#X obj 384 363 != 0;
#X obj 417 363 != 0;
#X obj 351 341 & 2;
#X obj 384 341 & 4;
#X obj 417 341 & 8;
#X obj 318 427 tgl 15 0 empty empty empty 17 7 0 10 -262144 -1 -1 0
1;
#X obj 351 427 tgl 15 0 empty empty empty 17 7 0 10 -262144 -1 -1 0
1;
#X obj 384 427 tgl 15 0 empty empty empty 17 7 0 10 -262144 -1 -1 0
1;
#X obj 417 427 tgl 15 0 empty empty empty 17 7 0 10 -262144 -1 -1 0
1;
#X obj 458 320 t f f f f, f 17;
#X obj 458 342 & 1;
#X obj 458 364 != 0;
#X obj 491 364 != 0;
#X obj 524 364 != 0;
#X obj 557 364 != 0;
#X obj 491 342 & 2;
#X obj 524 342 & 4;
#X obj 557 342 & 8;
#X obj 458 428 tgl 15 0 empty empty empty 17 7 0 10 -262144 -1 -1 0
1;
#X obj 491 428 tgl 15 0 empty empty empty 17 7 0 10 -262144 -1 -1 0
1;
#X obj 524 428 tgl 15 0 empty empty empty 17 7 0 10 -262144 -1 -1 0
1;
#X obj 557 428 tgl 15 0 empty empty empty 17 7 0 10 -262144 -1 -1 0
1;
#X obj 598 321 t f f f f, f 17;
#X obj 598 343 & 1;
#X obj 598 365 != 0;
#X obj 631 365 != 0;
#X obj 664 365 != 0;
#X obj 697 365 != 0;
#X obj 631 343 & 2;
#X obj 664 343 & 4;
#X obj 697 343 & 8;
#X obj 598 429 tgl 15 0 empty empty empty 17 7 0 10 -262144 -1 -1 0
1;
#X obj 631 429 tgl 15 0 empty empty empty 17 7 0 10 -262144 -1 -1 0
1;
#X obj 664 429 tgl 15 0 empty empty empty 17 7 0 10 -262144 -1 -1 0
1;
#X obj 697 429 tgl 15 0 empty empty empty 17 7 0 10 -262144 -1 -1 0
1;
#X obj 738 320 t f f f f, f 17;
#X obj 738 342 & 1;
#X obj 738 364 != 0;
#X obj 771 364 != 0;
#X obj 804 364 != 0;
#X obj 837 364 != 0;
#X obj 771 342 & 2;
#X obj 804 342 & 4;
#X obj 837 342 & 8;
#X obj 738 428 tgl 15 0 empty empty empty 17 7 0 10 -262144 -1 -1 0
1;
#X obj 771 428 tgl 15 0 empty empty empty 17 7 0 10 -262144 -1 -1 0
1;
#X obj 804 428 tgl 15 0 empty empty empty 17 7 0 10 -262144 -1 -1 0
1;
#X obj 837 428 tgl 15 0 empty empty empty 17 7 0 10 -262144 -1 -1 0
1;
#X obj 200 243 tgl 15 0 empty empty empty 17 7 0 10 -262144 -1 -1 1
1;
#X msg 200 307 c 11 c \$1;
#X obj 84 194 tgl 15 0 empty empty empty 17 7 0 10 -262144 -1 -1 0
1;
#X obj 83 145 tgl 15 0 empty empty empty 17 7 0 10 -262144 -1 -1 1
1;
#X obj 83 171 metro 300;
#X obj 84 214 sel 0 1;
#X msg 88 275 1;
#X obj 39 275 del 120;
#X msg 39 297 0;
#X floatatom 37 193 5 0 0 0 - - -, f 5;
#X obj 41 250 t b b;
#X obj 146 316 tgl 15 0 empty empty empty 17 7 0 10 -262144 -1 -1 1
1;
#X msg 175 268 1;
#X obj 126 268 del 120;
#X msg 126 290 0;
#X obj 128 243 t b b;
#X floatatom 573 629 5 0 0 0 - - -, f 5;
#X obj 518 521 t a;
#X msg 318 449 11 \$1;
#X msg 352 449 9 \$1;
#X msg 384 447 6 \$1;
#X msg 417 448 3 \$1;
#X msg 457 447 0 \$1;
#X msg 491 447 8 \$1;
#X msg 524 447 5 \$1;
#X msg 557 447 2 \$1;
#X msg 631 450 7 \$1;
#X msg 664 451 4 \$1;
#X msg 699 452 10 \$1;
#X msg 738 448 13 \$1;
#X msg 804 450 1 \$1;
#X msg 837 450 12 \$1;
#X obj 318 385 change;
#X obj 351 404 change;
#X obj 384 384 change;
#X obj 417 403 change;
#X obj 458 386 change;
#X obj 491 405 change;
#X obj 524 385 change;
#X obj 557 404 change;
#X obj 598 387 change;
#X obj 631 406 change;
#X obj 664 386 change;
#X obj 697 405 change;
#X obj 738 388 change;
#X obj 771 407 change;
#X obj 804 387 change;
#X obj 837 406 change;
#X msg 573 523 \$2 \$1;
#X obj 573 545 route 1;
#X obj 657 510 route 10 11;
#X obj 657 532 * 10;
#X obj 688 532 * 20;
#X obj 657 554 +;
#X obj 688 554 t b f;
#X obj 573 589 +;
#X obj 573 567 moses 10;
#N canvas 6 75 608 468 decode 0;
#X obj 19 51 route 65;
#X obj 19 73 unpack f f f f f, f 94;
#X obj 19 97 t f f f f, f 17;
#X obj 19 119 & 1;
#X obj 19 141 != 0;
#X obj 52 141 != 0;
#X obj 85 141 != 0;
#X obj 118 141 != 0;
#X obj 52 119 & 2;
#X obj 85 119 & 4;
#X obj 118 119 & 8;
#X obj 19 205 tgl 15 0 empty empty empty 17 7 0 10 -262144 -1 -1 0
1;
#X obj 52 205 tgl 15 0 empty empty empty 17 7 0 10 -262144 -1 -1 0
1;
#X obj 85 205 tgl 15 0 empty empty empty 17 7 0 10 -262144 -1 -1 0
1;
#X obj 118 205 tgl 15 0 empty empty empty 17 7 0 10 -262144 -1 -1 0
1;
#X obj 159 98 t f f f f, f 17;
#X obj 159 120 & 1;
#X obj 159 142 != 0;
#X obj 192 142 != 0;
#X obj 225 142 != 0;
#X obj 258 142 != 0;
#X obj 192 120 & 2;
#X obj 225 120 & 4;
#X obj 258 120 & 8;
#X obj 159 206 tgl 15 0 empty empty empty 17 7 0 10 -262144 -1 -1 0
1;
#X obj 192 206 tgl 15 0 empty empty empty 17 7 0 10 -262144 -1 -1 0
1;
#X obj 225 206 tgl 15 0 empty empty empty 17 7 0 10 -262144 -1 -1 0
1;
#X obj 258 206 tgl 15 0 empty empty empty 17 7 0 10 -262144 -1 -1 0
1;
#X obj 299 99 t f f f f, f 17;
#X obj 299 121 & 1;
#X obj 299 143 != 0;
#X obj 332 143 != 0;
#X obj 365 143 != 0;
#X obj 398 143 != 0;
#X obj 332 121 & 2;
#X obj 365 121 & 4;
#X obj 398 121 & 8;
#X obj 299 207 tgl 15 0 empty empty empty 17 7 0 10 -262144 -1 -1 0
1;
#X obj 332 207 tgl 15 0 empty empty empty 17 7 0 10 -262144 -1 -1 0
1;
#X obj 365 207 tgl 15 0 empty empty empty 17 7 0 10 -262144 -1 -1 0
1;
#X obj 398 207 tgl 15 0 empty empty empty 17 7 0 10 -262144 -1 -1 0
1;
#X obj 439 98 t f f f f, f 17;
#X obj 439 120 & 1;
#X obj 439 142 != 0;
#X obj 472 142 != 0;
#X obj 505 142 != 0;
#X obj 538 142 != 0;
#X obj 472 120 & 2;
#X obj 505 120 & 4;
#X obj 538 120 & 8;
#X obj 439 206 tgl 15 0 empty empty empty 17 7 0 10 -262144 -1 -1 0
1;
#X obj 472 206 tgl 15 0 empty empty empty 17 7 0 10 -262144 -1 -1 0
1;
#X obj 505 206 tgl 15 0 empty empty empty 17 7 0 10 -262144 -1 -1 0
1;
#X obj 538 206 tgl 15 0 empty empty empty 17 7 0 10 -262144 -1 -1 0
1;
#X obj 219 299 t a;
#X msg 19 227 11 \$1;
#X msg 53 227 9 \$1;
#X msg 85 225 6 \$1;
#X msg 118 226 3 \$1;
#X msg 158 225 0 \$1;
#X msg 192 225 8 \$1;
#X msg 225 225 5 \$1;
#X msg 258 225 2 \$1;
#X msg 332 228 7 \$1;
#X msg 365 229 4 \$1;
#X msg 400 230 10 \$1;
#X msg 439 226 13 \$1;
#X msg 505 228 1 \$1;
#X msg 538 228 12 \$1;
#X obj 19 163 change;
#X obj 52 182 change;
#X obj 85 162 change;
#X obj 118 181 change;
#X obj 159 164 change;
#X obj 192 183 change;
#X obj 225 163 change;
#X obj 258 182 change;
#X obj 299 165 change;
#X obj 332 184 change;
#X obj 365 164 change;
#X obj 398 183 change;
#X obj 439 166 change;
#X obj 472 185 change;
#X obj 505 165 change;
#X obj 538 184 change;
#X obj 19 24 inlet;
#X obj 219 321 outlet;
#X msg 478 228 14 \$1;
#X msg 292 229 15 \$1;
#X connect 0 0 1 0;
#X connect 1 0 2 0;
#X connect 1 1 15 0;
#X connect 1 2 28 0;
#X connect 1 3 41 0;
#X connect 2 0 3 0;
#X connect 2 1 8 0;
#X connect 2 2 9 0;
#X connect 2 3 10 0;
#X connect 3 0 4 0;
#X connect 4 0 69 0;
#X connect 5 0 70 0;
#X connect 6 0 71 0;
#X connect 7 0 72 0;
#X connect 8 0 5 0;
#X connect 9 0 6 0;
#X connect 10 0 7 0;
#X connect 11 0 55 0;
#X connect 12 0 56 0;
#X connect 13 0 57 0;
#X connect 14 0 58 0;
#X connect 15 0 16 0;
#X connect 15 1 21 0;
#X connect 15 2 22 0;
#X connect 15 3 23 0;
#X connect 16 0 17 0;
#X connect 17 0 73 0;
#X connect 18 0 74 0;
#X connect 19 0 75 0;
#X connect 20 0 76 0;
#X connect 21 0 18 0;
#X connect 22 0 19 0;
#X connect 23 0 20 0;
#X connect 24 0 59 0;
#X connect 25 0 60 0;
#X connect 26 0 61 0;
#X connect 27 0 62 0;
#X connect 28 0 29 0;
#X connect 28 1 34 0;
#X connect 28 2 35 0;
#X connect 28 3 36 0;
#X connect 29 0 30 0;
#X connect 30 0 77 0;
#X connect 31 0 78 0;
#X connect 32 0 79 0;
#X connect 33 0 80 0;
#X connect 34 0 31 0;
#X connect 35 0 32 0;
#X connect 36 0 33 0;
#X connect 37 0 88 0;
#X connect 38 0 63 0;
#X connect 39 0 64 0;
#X connect 40 0 65 0;
#X connect 41 0 42 0;
#X connect 41 1 47 0;
#X connect 41 2 48 0;
#X connect 41 3 49 0;
#X connect 42 0 43 0;
#X connect 43 0 81 0;
#X connect 44 0 82 0;
#X connect 45 0 83 0;
#X connect 46 0 84 0;
#X connect 47 0 44 0;
#X connect 48 0 45 0;
#X connect 49 0 46 0;
#X connect 50 0 66 0;
#X connect 51 0 87 0;
#X connect 52 0 67 0;
#X connect 53 0 68 0;
#X connect 54 0 86 0;
#X connect 55 0 54 0;
#X connect 56 0 54 0;
#X connect 57 0 54 0;
#X connect 58 0 54 0;
#X connect 59 0 54 0;
#X connect 60 0 54 0;
#X connect 61 0 54 0;
#X connect 62 0 54 0;
#X connect 63 0 54 0;
#X connect 64 0 54 0;
#X connect 65 0 54 0;
#X connect 66 0 54 0;
#X connect 67 0 54 0;
#X connect 68 0 54 0;
#X connect 69 0 11 0;
#X connect 70 0 12 0;
#X connect 71 0 13 0;
#X connect 72 0 14 0;
#X connect 73 0 24 0;
#X connect 74 0 25 0;
#X connect 75 0 26 0;
#X connect 76 0 27 0;
#X connect 77 0 37 0;
#X connect 78 0 38 0;
#X connect 79 0 39 0;
#X connect 80 0 40 0;
#X connect 81 0 50 0;
#X connect 82 0 51 0;
#X connect 83 0 52 0;
#X connect 84 0 53 0;
#X connect 85 0 0 0;
#X connect 87 0 54 0;
#X connect 88 0 54 0;
#X restore 560 191 pd decode;
#X obj 224 85 fruit/fruit 1 phone2 11 phone;
#X obj 405 85 fruit/fruit 1 phone3 12 phone;
#X obj 592 85 fruit/fruit 1 phone4 13 phone;
#X obj 560 213 unpack f f;
#X floatatom 560 235 5 0 0 0 - - -, f 5;
#X floatatom 617 235 5 0 0 0 - - -, f 5;
#X obj 817 82 route 15;
#X obj 758 232 *~;
#X obj 818 228 mtof;
#X obj 818 250 osc~;
#X obj 758 254 dac~;
#X msg 819 141 \$2 \$1;
#X obj 819 163 route 1;
#X obj 818 206 + 50;
#X obj 819 185 * 3;
#X obj 722 158 unpack f f;
#X obj 928 208 mtof;
#X obj 926 232 osc~;
#X obj 779 201 * 0.4;
#X obj 929 165 * -1;
#X obj 928 186 + 80;
#X obj 560 169 fruit/receive phone4;
#X connect 4 0 3 0;
#X connect 5 0 4 0;
#X connect 6 0 7 0;
#X connect 7 0 8 0;
#X connect 8 0 9 0;
#X connect 8 1 22 0;
#X connect 8 2 35 0;
#X connect 8 3 48 0;
#X connect 9 0 10 0;
#X connect 9 1 15 0;
#X connect 9 2 16 0;
#X connect 9 3 17 0;
#X connect 10 0 11 0;
#X connect 11 0 93 0;
#X connect 12 0 94 0;
#X connect 13 0 95 0;
#X connect 14 0 96 0;
#X connect 15 0 12 0;
#X connect 16 0 13 0;
#X connect 17 0 14 0;
#X connect 18 0 79 0;
#X connect 19 0 80 0;
#X connect 20 0 81 0;
#X connect 21 0 82 0;
#X connect 22 0 23 0;
#X connect 22 1 28 0;
#X connect 22 2 29 0;
#X connect 22 3 30 0;
#X connect 23 0 24 0;
#X connect 24 0 97 0;
#X connect 25 0 98 0;
#X connect 26 0 99 0;
#X connect 27 0 100 0;
#X connect 28 0 25 0;
#X connect 29 0 26 0;
#X connect 30 0 27 0;
#X connect 31 0 83 0;
#X connect 32 0 84 0;
#X connect 33 0 85 0;
#X connect 34 0 86 0;
#X connect 35 0 36 0;
#X connect 35 1 41 0;
#X connect 35 2 42 0;
#X connect 35 3 43 0;
#X connect 36 0 37 0;
#X connect 37 0 101 0;
#X connect 38 0 102 0;
#X connect 39 0 103 0;
#X connect 40 0 104 0;
#X connect 41 0 38 0;
#X connect 42 0 39 0;
#X connect 43 0 40 0;
#X connect 45 0 87 0;
#X connect 46 0 88 0;
#X connect 47 0 89 0;
#X connect 48 0 49 0;
#X connect 48 1 54 0;
#X connect 48 2 55 0;
#X connect 48 3 56 0;
#X connect 49 0 50 0;
#X connect 50 0 105 0;
#X connect 51 0 106 0;
#X connect 52 0 107 0;
#X connect 53 0 108 0;
#X connect 54 0 51 0;
#X connect 55 0 52 0;
#X connect 56 0 53 0;
#X connect 57 0 90 0;
#X connect 59 0 91 0;
#X connect 60 0 92 0;
#X connect 61 0 62 0;
#X connect 62 0 3 0;
#X connect 63 0 66 0;
#X connect 64 0 65 0;
#X connect 65 0 63 0;
#X connect 66 0 71 0;
#X connect 66 0 76 0;
#X connect 66 1 76 0;
#X connect 67 0 5 0;
#X connect 68 0 69 0;
#X connect 69 0 5 0;
#X connect 70 0 68 1;
#X connect 70 0 74 1;
#X connect 71 0 68 0;
#X connect 71 1 67 0;
#X connect 72 0 61 0;
#X connect 73 0 72 0;
#X connect 74 0 75 0;
#X connect 75 0 72 0;
#X connect 76 0 74 0;
#X connect 76 1 73 0;
#X connect 78 0 109 0;
#X connect 78 0 111 0;
#X connect 79 0 78 0;
#X connect 80 0 78 0;
#X connect 81 0 78 0;
#X connect 82 0 78 0;
#X connect 83 0 78 0;
#X connect 84 0 78 0;
#X connect 85 0 78 0;
#X connect 86 0 78 0;
#X connect 87 0 78 0;
#X connect 88 0 78 0;
#X connect 89 0 78 0;
#X connect 90 0 78 0;
#X connect 91 0 78 0;
#X connect 92 0 78 0;
#X connect 93 0 18 0;
#X connect 94 0 19 0;
#X connect 95 0 20 0;
#X connect 96 0 21 0;
#X connect 97 0 31 0;
#X connect 98 0 32 0;
#X connect 99 0 33 0;
#X connect 100 0 34 0;
#X connect 101 0 44 0;
#X connect 102 0 45 0;
#X connect 103 0 46 0;
#X connect 104 0 47 0;
#X connect 105 0 57 0;
#X connect 106 0 58 0;
#X connect 107 0 59 0;
#X connect 108 0 60 0;
#X connect 109 0 110 0;
#X connect 110 0 117 0;
#X connect 111 0 112 0;
#X connect 111 1 113 0;
#X connect 112 0 114 0;
#X connect 113 0 115 0;
#X connect 114 0 116 1;
#X connect 115 0 114 0;
#X connect 115 1 114 1;
#X connect 116 0 77 0;
#X connect 117 0 116 0;
#X connect 118 0 122 0;
#X connect 118 0 134 0;
#X connect 122 0 123 0;
#X connect 122 1 124 0;
#X connect 125 1 130 0;
#X connect 126 0 129 0;
#X connect 126 0 129 1;
#X connect 127 0 128 0;
#X connect 128 0 126 1;
#X connect 130 0 131 0;
#X connect 131 0 133 0;
#X connect 132 0 127 0;
#X connect 133 0 132 0;
#X connect 134 0 133 0;
#X connect 134 0 138 0;
#X connect 134 1 137 0;
#X connect 135 0 136 0;
#X connect 136 0 126 1;
#X connect 137 0 126 0;
#X connect 138 0 139 0;
#X connect 139 0 135 0;
#X connect 140 0 118 0;
